<svg width="48" height="48" viewBox="0 0 48 48" xmlns="http://www.w3.org/2000/svg" xmlns:xlink="http://www.w3.org/1999/xlink">
    <defs>
        <path id="16yzcktnta" d="M0 0h48v48H0z"/>
    </defs>
    <g fill="none" fill-rule="evenodd">
        <g>
            <mask id="s82zq2x07b" fill="#fff">
                <use xlink:href="#16yzcktnta"/>
            </mask>
            <path d="M24 1.828A22.027 22.027 0 0 0 8.322 8.322 22.027 22.027 0 0 0 1.828 24c0 5.922 2.306 11.49 6.494 15.678A22.027 22.027 0 0 0 24 46.172c5.922 0 11.49-2.306 15.678-6.494A22.027 22.027 0 0 0 46.172 24c0-5.922-2.306-11.49-6.494-15.678A22.027 22.027 0 0 0 24 1.828M24 48a23.843 23.843 0 0 1-16.97-7.03A23.843 23.843 0 0 1 0 24c0-6.41 2.496-12.438 7.03-16.97A23.843 23.843 0 0 1 24 0c6.41 0 12.438 2.496 16.97 7.03A23.843 23.843 0 0 1 48 24c0 6.41-2.496 12.438-7.03 16.97A23.843 23.843 0 0 1 24 48" fill="#FFF" mask="url(#s82zq2x07b)"/>
        </g>
        <path d="M19.33 14.61c-.168 0-.3.062-.366.1a.713.713 0 0 0-.362.628v17.324c0 .378.253.565.362.628.109.063.397.19.723 0l14.95-8.662a.713.713 0 0 0 .36-.628.713.713 0 0 0-.36-.628l-14.95-8.662a.706.706 0 0 0-.358-.1m-.004 20.59c-.433 0-.867-.115-1.262-.344a2.51 2.51 0 0 1-1.263-2.194V15.338a2.51 2.51 0 0 1 1.263-2.194 2.492 2.492 0 0 1 2.525 0l14.95 8.661A2.51 2.51 0 0 1 36.8 24a2.51 2.51 0 0 1-1.263 2.195l-14.949 8.661c-.395.23-.829.344-1.263.344" fill="#FFF"/>
    </g>
</svg>
