<svg width="48" height="48" viewBox="0 0 48 48" xmlns="http://www.w3.org/2000/svg" xmlns:xlink="http://www.w3.org/1999/xlink">
    <defs>
        <path id="jwnwog7w4a" d="M0 0h48v48H0z"/>
    </defs>
    <g fill="none" fill-rule="evenodd">
        <g>
            <mask id="n74ajfdseb" fill="#fff">
                <use xlink:href="#jwnwog7w4a"/>
            </mask>
            <path d="M24 0C10.745 0 0 10.745 0 24s10.745 24 24 24 24-10.745 24-24S37.255 0 24 0m0 2.415a21.443 21.443 0 0 1 15.263 6.322A21.444 21.444 0 0 1 45.585 24a21.444 21.444 0 0 1-6.322 15.263A21.443 21.443 0 0 1 24 45.585a21.443 21.443 0 0 1-15.263-6.322A21.444 21.444 0 0 1 2.415 24 21.444 21.444 0 0 1 8.737 8.737 21.443 21.443 0 0 1 24 2.415" fill="#FFF" mask="url(#n74ajfdseb)"/>
        </g>
        <path d="M16.793 33.966a2.248 2.248 0 0 1-2.246-2.246V16.28a2.248 2.248 0 0 1 2.246-2.246h1.911a2.248 2.248 0 0 1 2.246 2.246v15.44a2.248 2.248 0 0 1-2.246 2.246h-1.91z" fill="#FFF"/>
        <path d="M18.704 13.974h-1.91a2.313 2.313 0 0 0-2.307 2.306v15.44a2.313 2.313 0 0 0 2.306 2.306h1.911a2.313 2.313 0 0 0 2.306-2.306V16.28a2.313 2.313 0 0 0-2.306-2.306zm0 .12c1.205 0 2.186.98 2.186 2.186v15.44c0 1.205-.98 2.186-2.186 2.186h-1.91a2.188 2.188 0 0 1-2.186-2.186V16.28c0-1.205.98-2.186 2.185-2.186h1.911zM29.296 33.966a2.248 2.248 0 0 1-2.246-2.246V16.28a2.248 2.248 0 0 1 2.246-2.246h1.911a2.248 2.248 0 0 1 2.246 2.246v15.44a2.248 2.248 0 0 1-2.246 2.246h-1.911z" fill="#FFF"/>
        <path d="M31.207 13.974h-1.911a2.313 2.313 0 0 0-2.306 2.306v15.44a2.313 2.313 0 0 0 2.306 2.306h1.91a2.313 2.313 0 0 0 2.307-2.306V16.28a2.313 2.313 0 0 0-2.306-2.306zm0 .12c1.205 0 2.185.98 2.185 2.186v15.44c0 1.205-.98 2.186-2.185 2.186h-1.911a2.188 2.188 0 0 1-2.185-2.186V16.28c0-1.205.98-2.186 2.185-2.186h1.91z" fill="#FFF"/>
    </g>
</svg>
