<svg width="43" height="42.998" viewBox="0 0 43 42.998" xmlns="http://www.w3.org/2000/svg" xmlns:xlink="http://www.w3.org/1999/xlink">
    <defs>
        <path id="f27e1e68da" d="M0 0h43v42.998H0z"/>
    </defs>
    <g fill="none" fill-rule="evenodd">
        <g>
            <mask id="0xwis1wymb" fill="#fff">
                <use xlink:href="#f27e1e68da"/>
            </mask>
            <path d="M41.455 24.762c-1.121.183-2.29.355-3.478.515a.871.871 0 0 0-.736.634 16.29 16.29 0 0 1-1.488 3.602.873.873 0 0 0 .065.968c.782 1.024 1.484 1.97 2.138 2.874l-4.6 4.599a129.585 129.585 0 0 1-2.876-2.14.884.884 0 0 0-.53-.177.99.99 0 0 0-.432.115 16.302 16.302 0 0 1-3.605 1.488.87.87 0 0 0-.634.73 130.822 130.822 0 0 1-.517 3.483h-6.527c-.18-1.114-.352-2.284-.514-3.476a.869.869 0 0 0-.635-.736 16.324 16.324 0 0 1-3.601-1.488.872.872 0 0 0-.436-.116.997.997 0 0 0-.532.18c-1.024.783-1.97 1.485-2.874 2.137l-4.599-4.6a139.2 139.2 0 0 1 2.135-2.87.872.872 0 0 0 .07-.966A16.337 16.337 0 0 1 5.754 25.9a.879.879 0 0 0-.725-.622c-1.194-.16-2.364-.332-3.485-.515v-6.527c1.121-.18 2.29-.354 3.48-.514a.883.883 0 0 0 .733-.635c.355-1.267.856-2.48 1.494-3.612a.876.876 0 0 0-.07-.957 129.438 129.438 0 0 1-2.138-2.874l4.6-4.599c.903.652 1.85 1.356 2.876 2.14.151.114.34.177.529.177.133 0 .316-.049.432-.113A16.207 16.207 0 0 1 17.1 5.755c.335-.1.58-.388.622-.727.162-1.2.334-2.37.514-3.483h6.527c.183 1.118.355 2.286.515 3.476a.885.885 0 0 0 .636.737c1.267.355 2.48.856 3.602 1.487a.866.866 0 0 0 .434.116c.17 0 .398-.078.534-.18 1.022-.781 1.968-1.483 2.873-2.137l4.6 4.6a141.03 141.03 0 0 1-2.135 2.87.87.87 0 0 0-.07.966 16.411 16.411 0 0 1 1.49 3.605.87.87 0 0 0 .729.636c1.194.16 2.364.334 3.485.514v6.527zm.9-7.943a123.873 123.873 0 0 0-3.75-.57 17.94 17.94 0 0 0-1.296-3.14c.836-1.103 1.587-2.12 2.286-3.1a.771.771 0 0 0-.084-.995l-5.525-5.526a.771.771 0 0 0-.995-.083c-.98.697-1.999 1.448-3.1 2.286a17.708 17.708 0 0 0-3.14-1.297c-.179-1.297-.37-2.555-.57-3.75A.774.774 0 0 0 25.418 0h-7.836c-.377 0-.7.273-.763.645a125.68 125.68 0 0 0-.57 3.749 17.91 17.91 0 0 0-3.14 1.295 128.32 128.32 0 0 0-3.1-2.284.771.771 0 0 0-.995.083L3.488 9.014a.77.77 0 0 0-.083.994c.695.977 1.444 1.994 2.286 3.101-.53.996-.965 2.051-1.297 3.14-1.292.175-2.552.368-3.75.57A.772.772 0 0 0 0 17.58v7.838c0 .377.273.699.645.761a124.6 124.6 0 0 0 3.749.572c.334 1.09.768 2.142 1.297 3.14a126.266 126.266 0 0 0-2.286 3.099.77.77 0 0 0 .083.994l5.526 5.526a.773.773 0 0 0 .994.083c.979-.697 1.998-1.446 3.101-2.284.995.527 2.046.961 3.14 1.295.177 1.298.37 2.559.57 3.75a.773.773 0 0 0 .763.644h7.836c.377 0 .7-.27.763-.645.2-1.194.391-2.452.57-3.749a17.808 17.808 0 0 0 3.14-1.297c1.103.84 2.12 1.589 3.1 2.286a.773.773 0 0 0 .995-.083l5.525-5.526a.77.77 0 0 0 .084-.994 128.692 128.692 0 0 0-2.286-3.1c.527-.994.961-2.047 1.297-3.139 1.291-.177 2.551-.37 3.75-.572a.772.772 0 0 0 .644-.761V17.58a.772.772 0 0 0-.645-.761z" fill="#FFF" mask="url(#0xwis1wymb)"/>
        </g>
        <path d="M21.5 32.676c-6.164 0-11.177-5.015-11.177-11.177S15.336 10.322 21.5 10.322c6.162 0 11.177 5.015 11.177 11.177S27.662 32.676 21.5 32.676m0-23.9c-7.014 0-12.722 5.709-12.722 12.723 0 7.015 5.708 12.722 12.722 12.722 7.015 0 12.722-5.707 12.722-12.722 0-7.014-5.707-12.722-12.722-12.722" fill="#FFF"/>
        <path d="M21.5 27.651a6.158 6.158 0 0 1-6.152-6.152 6.157 6.157 0 0 1 6.152-6.151 6.158 6.158 0 0 1 6.151 6.151 6.16 6.16 0 0 1-6.151 6.152m0-13.077a6.932 6.932 0 0 0-6.925 6.925 6.932 6.932 0 0 0 6.925 6.926 6.932 6.932 0 0 0 6.925-6.926 6.932 6.932 0 0 0-6.925-6.925" fill="#FFF"/>
    </g>
</svg>
