<svg width="33" height="30" viewBox="0 0 33 30" xmlns="http://www.w3.org/2000/svg" xmlns:xlink="http://www.w3.org/1999/xlink">
    <defs>
        <path id="l63djzkx9a" d="M0 0h33v30H0z"/>
    </defs>
    <g fill="none" fill-rule="evenodd">
        <g>
            <mask id="imy8nf2e8b" fill="#fff">
                <use xlink:href="#l63djzkx9a"/>
            </mask>
            <path d="M5.316 21.564c-4.9-4.04-5.612-11.304-1.59-16.226a11.438 11.438 0 0 1 8.88-4.214c2.562 0 5.14.857 7.276 2.617 4.203 3.466 5.314 9.303 3.006 14a10.281 10.281 0 0 1-.554.998c-.26.421-.541.835-.863 1.228a11.6 11.6 0 0 1-1.446 1.475c-.144.126-.292.247-.443.363a11.445 11.445 0 0 1-6.99 2.376c-2.563 0-5.14-.857-7.276-2.617m24.856 7.312a.689.689 0 0 1-.44-.158l-8.413-6.935c.357-.346.698-.712 1.016-1.103.32-.39.606-.802.873-1.22l8.418 6.94a.688.688 0 0 1 .25.47.688.688 0 0 1-.154.51l-1.012 1.24a.69.69 0 0 1-.538.256m2.819-2.115a1.82 1.82 0 0 0-.655-1.23l-8.557-7.054a12.597 12.597 0 0 0 1.356-7.063 12.584 12.584 0 0 0-4.544-8.541A12.585 12.585 0 0 0 12.605 0a12.54 12.54 0 0 0-9.744 4.625 12.609 12.609 0 0 0-2.8 9.266 12.59 12.59 0 0 0 4.545 8.542 12.588 12.588 0 0 0 7.987 2.872c2.9 0 5.66-.99 7.873-2.771l8.556 7.053a1.811 1.811 0 0 0 2.553-.252l1.012-1.242c.308-.375.452-.848.404-1.332" fill="#6C7682" mask="url(#imy8nf2e8b)"/>
        </g>
        <path d="M12.593 21.677a8.924 8.924 0 0 1-5.695-2.05c-3.836-3.16-4.392-8.847-1.244-12.7a8.95 8.95 0 0 1 6.95-3.298c2.006 0 4.024.671 5.695 2.048 3.133 2.583 4.076 6.85 2.6 10.425a10.259 10.259 0 0 1-.512 1.032c-.245.43-.52.849-.843 1.244a9.007 9.007 0 0 1-1.055 1.071c-.142.126-.282.257-.43.372-.157.12-.32.223-.483.331a8.961 8.961 0 0 1-4.983 1.525m8.23-4.184c.097-.164.194-.329.28-.497.086-.173.166-.35.242-.526 1.655-3.828.676-8.451-2.691-11.227a9.536 9.536 0 0 0-6.05-2.177A9.498 9.498 0 0 0 5.22 6.57c-3.339 4.085-2.746 10.138 1.322 13.492a9.536 9.536 0 0 0 6.05 2.177 9.476 9.476 0 0 0 5.434-1.717c.159-.111.32-.216.473-.338.148-.116.286-.248.427-.374a9.61 9.61 0 0 0 1.049-1.076c.323-.396.598-.813.847-1.242" fill="#6C7682"/>
        <path d="M19.037 10.108a.28.28 0 0 0 .263.185l.096-.017a.282.282 0 0 0 .167-.36 6.86 6.86 0 0 0-3.556-3.905 6.808 6.808 0 0 0-5.265-.236.282.282 0 0 0-.167.36.28.28 0 0 0 .358.168c.094-.034.188-.058.281-.087a6.253 6.253 0 0 1 4.556.304 6.296 6.296 0 0 1 3.154 3.315c.036.091.08.18.113.273" fill="#6C7682"/>
    </g>
</svg>
