<svg width="23" height="17" viewBox="0 0 23 17" xmlns="http://www.w3.org/2000/svg" xmlns:xlink="http://www.w3.org/1999/xlink">
    <defs>
        <path id="aemwsgdnza" d="M0 0h23v17H0z"/>
    </defs>
    <g fill="none" fill-rule="evenodd">
        <mask id="y2k338zt6b" fill="#fff">
            <use xlink:href="#aemwsgdnza"/>
        </mask>
        <path d="M22.105 3.467 10.05 15.87a1.174 1.174 0 0 1-1.656 0l-7.5-7.715a.498.498 0 0 1 0-.694l1.812-1.864a.468.468 0 0 1 .675 0l5.349 5.502a.7.7 0 0 0 .985 0L19.619.91a.479.479 0 0 1 .674 0l1.812 1.863c.09.093.14.216.14.348 0 .13-.05.254-.14.347m.534-1.244L20.828.36a1.236 1.236 0 0 0-1.743 0L9.222 10.507l-5.306-5.46a1.237 1.237 0 0 0-1.743 0L.36 6.91C.128 7.15 0 7.468 0 7.808c0 .338.128.657.361.896L7.86 16.42a1.89 1.89 0 0 0 2.725 0L22.639 4.016c.233-.239.361-.558.361-.896 0-.339-.128-.657-.361-.897" fill="#479F6D" mask="url(#y2k338zt6b)"/>
    </g>
</svg>
