<svg width="43" height="31.783" viewBox="0 0 43 31.783" xmlns="http://www.w3.org/2000/svg" xmlns:xlink="http://www.w3.org/1999/xlink">
    <defs>
        <path id="53z4vasbba" d="M0 0h43v31.783H0z"/>
    </defs>
    <g fill="none" fill-rule="evenodd">
        <mask id="w230u8lbbb" fill="#fff">
            <use xlink:href="#53z4vasbba"/>
        </mask>
        <path d="M41.327 6.481 18.79 29.67c-.827.851-2.27.851-3.097 0L1.673 15.246a.932.932 0 0 1-.26-.65c0-.244.093-.475.26-.648l3.387-3.485a.875.875 0 0 1 1.261 0l10 10.288c.492.505 1.35.505 1.841 0L36.679 1.698a.895.895 0 0 1 1.26 0l3.388 3.485c.168.174.26.404.26.65a.925.925 0 0 1-.26.648m.998-2.324L38.939.672c-.87-.896-2.39-.896-3.258 0l-18.44 18.97L7.32 9.436c-.871-.894-2.388-.896-3.259 0L.675 12.92A2.39 2.39 0 0 0 0 14.597c0 .633.24 1.23.675 1.675l14.019 14.426a3.533 3.533 0 0 0 5.095 0l22.536-23.19A2.386 2.386 0 0 0 43 5.832a2.39 2.39 0 0 0-.675-1.675" fill="#FFF" mask="url(#w230u8lbbb)"/>
    </g>
</svg>
