<svg width="49" height="45" viewBox="0 0 49 45" xmlns="http://www.w3.org/2000/svg" xmlns:xlink="http://www.w3.org/1999/xlink">
    <defs>
        <path id="y5p38g9a3a" d="M0 0h49v45H0z"/>
    </defs>
    <g fill="none" fill-rule="evenodd">
        <g>
            <mask id="h24kr6l2qb" fill="#fff">
                <use xlink:href="#y5p38g9a3a"/>
            </mask>
            <path d="M41.672 42.696H7.328c-3.123 0-5.056-2.661-5.056-5.128 0-.891.23-1.75.685-2.549L20.129 4.862c.912-1.602 2.546-2.558 4.37-2.558 1.826 0 3.459.956 4.372 2.558L46.042 35.02c.456.799.686 1.658.686 2.55 0 2.466-1.933 5.127-5.056 5.127m6.338-8.828L30.838 3.71C29.515 1.386 27.146 0 24.499 0c-2.645 0-5.015 1.386-6.338 3.71L.989 33.868A7.505 7.505 0 0 0 0 37.57C0 41.667 3.287 45 7.328 45h34.344C45.712 45 49 41.667 49 37.568a7.504 7.504 0 0 0-.99-3.7" fill="#FFF" mask="url(#h24kr6l2qb)"/>
        </g>
        <path d="M24.5 30.494a1.45 1.45 0 0 1-1.439-1.377l-.994-17.697a2.467 2.467 0 0 1 .662-1.837 2.399 2.399 0 0 1 1.77-.774c.678 0 1.307.274 1.772.774.465.499.7 1.151.662 1.837l-.995 17.697a1.45 1.45 0 0 1-1.438 1.377M24.5 39c-1.338 0-2.426-1.103-2.426-2.459s1.088-2.46 2.426-2.46c1.337 0 2.426 1.104 2.426 2.46 0 1.356-1.089 2.46-2.426 2.46" fill="#FFF"/>
    </g>
</svg>
