<svg width="31" height="31" viewBox="0 0 31 31" xmlns="http://www.w3.org/2000/svg">
    <g stroke="#FFF" stroke-width="1.346" fill="none" fill-rule="evenodd" stroke-linecap="round">
        <path d="M5.707 12.64v15.728c0 .733-.606 1.327-1.353 1.327h-3C.606 29.695 0 29.1 0 28.368V12.64c0-.732.606-1.326 1.354-1.326h3c.747 0 1.353.594 1.353 1.326zM28.154 15.9c1.418 0 2.568 1.127 2.568 2.517s-1.15 2.516-2.568 2.516h-2.879M27.149 20.933c1.418 0 2.568 1.127 2.568 2.517h0c0 1.39-1.15 2.517-2.568 2.517H24.27M5.707 12.397c1.735-.11 3.384-.887 4.453-2.24 1.996-2.525 2.24-5.723 2.876-8.178.623-2.399 4.15-2.713 5.084-.413.899 2.214.347 5.307-.962 8.51-.154.378.12.79.535.79h10.739c1.418 0 2.568 1.128 2.568 2.517h0c0 1.39-1.15 2.517-2.568 2.517h-2.846M26.144 25.967c1.419 0 2.568 1.126 2.568 2.516 0 1.39-1.15 2.517-2.568 2.517H13.39c-2.974-.253-4.702-2.416-7.306-2.416"/>
    </g>
</svg>
