<svg width="26" height="31" viewBox="0 0 26 31" xmlns="http://www.w3.org/2000/svg" xmlns:xlink="http://www.w3.org/1999/xlink">
    <defs>
        <path id="e80zpdgg4a" d="M0 0h26v31H0z"/>
    </defs>
    <g fill="none" fill-rule="evenodd">
        <g>
            <mask id="w55yljvinb" fill="#fff">
                <use xlink:href="#e80zpdgg4a"/>
            </mask>
            <path d="M24.839 28.571c0 .714-.595 1.294-1.326 1.294H2.486c-.73 0-1.325-.58-1.325-1.294V2.428c0-.713.595-1.294 1.325-1.294h21.027c.731 0 1.326.58 1.326 1.294v26.143zM23.513 0H2.486C1.116 0 0 1.09 0 2.43V28.57C0 29.91 1.116 31 2.486 31h21.027C24.884 31 26 29.91 26 28.571V2.428C26 1.09 24.884 0 23.513 0z" fill="#6C7682" mask="url(#w55yljvinb)"/>
        </g>
        <path d="M22.566 8.503a.447.447 0 0 1-.452.441H3.886a.447.447 0 0 1-.452-.441V4.24c0-.243.202-.442.452-.442h18.228c.25 0 .452.2.452.442v4.263zm-.452-5.272H3.886c-.57 0-1.033.452-1.033 1.009v4.263c0 .556.463 1.01 1.033 1.01h18.228c.57 0 1.032-.454 1.032-1.01V4.24a1.02 1.02 0 0 0-1.032-1.009zM7.41 14.192a.671.671 0 0 1-.677.663H4.617a.671.671 0 0 1-.678-.663v-1.297c0-.365.305-.662.678-.662h2.116c.373 0 .678.297.678.662v1.297zm-.677-2.526H4.617c-.693 0-1.258.552-1.258 1.23v1.296c0 .678.565 1.23 1.258 1.23h2.116c.693 0 1.259-.552 1.259-1.23v-1.297c0-.677-.566-1.229-1.26-1.229zM14.735 14.192a.671.671 0 0 1-.678.663h-2.115a.67.67 0 0 1-.677-.663v-1.297a.67.67 0 0 1 .677-.662h2.115c.374 0 .678.297.678.662v1.297zm-.678-2.526h-2.115c-.694 0-1.258.552-1.258 1.23v1.296c0 .678.564 1.23 1.258 1.23h2.115c.694 0 1.26-.552 1.26-1.23v-1.297c0-.677-.566-1.229-1.26-1.229zM22.06 14.192a.671.671 0 0 1-.679.663h-2.113a.671.671 0 0 1-.678-.663v-1.297c0-.365.304-.662.678-.662h2.113c.374 0 .679.297.679.662v1.297zm-.679-2.526h-2.113c-.694 0-1.26.552-1.26 1.23v1.296c0 .678.566 1.23 1.26 1.23h2.113c.694 0 1.26-.552 1.26-1.23v-1.297c0-.677-.566-1.229-1.26-1.229zM7.41 20.439a.671.671 0 0 1-.677.662H4.617a.671.671 0 0 1-.678-.662v-1.297c0-.365.305-.663.678-.663h2.116c.373 0 .678.298.678.663v1.297zm-.677-2.526H4.617c-.693 0-1.258.551-1.258 1.229v1.297c0 .677.565 1.23 1.258 1.23h2.116c.693 0 1.259-.553 1.259-1.23v-1.297c0-.678-.566-1.23-1.26-1.23zM14.735 20.439a.671.671 0 0 1-.678.662h-2.115a.67.67 0 0 1-.677-.662v-1.297a.67.67 0 0 1 .677-.663h2.115c.374 0 .678.298.678.663v1.297zm-.678-2.526h-2.115c-.694 0-1.258.551-1.258 1.229v1.297c0 .677.564 1.23 1.258 1.23h2.115c.694 0 1.26-.553 1.26-1.23v-1.297c0-.678-.566-1.23-1.26-1.23zM7.41 26.685a.671.671 0 0 1-.677.662H4.617a.671.671 0 0 1-.678-.662v-1.297c0-.365.305-.662.678-.662h2.116c.373 0 .678.297.678.662v1.297zm-.677-2.526H4.617c-.693 0-1.258.551-1.258 1.23v1.296c0 .678.565 1.23 1.258 1.23h2.116c.693 0 1.259-.552 1.259-1.23v-1.297c0-.678-.566-1.229-1.26-1.229zM14.735 26.685a.671.671 0 0 1-.678.662h-2.115a.67.67 0 0 1-.677-.662v-1.297a.67.67 0 0 1 .677-.662h2.115c.374 0 .678.297.678.662v1.297zm-.678-2.526h-2.115c-.694 0-1.258.551-1.258 1.23v1.296c0 .678.564 1.23 1.258 1.23h2.115c.694 0 1.26-.552 1.26-1.23v-1.297c0-.678-.566-1.229-1.26-1.229zM22.06 26.722a.671.671 0 0 1-.679.663h-2.113a.671.671 0 0 1-.678-.663v-7.58c0-.365.304-.663.678-.663h2.113c.374 0 .679.298.679.663v7.58zm-.679-8.81h-2.113c-.694 0-1.26.552-1.26 1.23v7.58c0 .678.566 1.23 1.26 1.23h2.113c.694 0 1.26-.552 1.26-1.23v-7.58c0-.678-.566-1.23-1.26-1.23z" fill="#6C7682"/>
    </g>
</svg>
