<svg width="33" height="24" viewBox="0 0 33 24" xmlns="http://www.w3.org/2000/svg" xmlns:xlink="http://www.w3.org/1999/xlink">
    <defs>
        <path id="ehsdf4py7a" d="M0 0h33v24H0z"/>
    </defs>
    <g fill="none" fill-rule="evenodd">
        <mask id="on2zc4rgfb" fill="#fff">
            <use xlink:href="#ehsdf4py7a"/>
        </mask>
        <path d="m20.889 11.969 11.024-7.747v15.495L20.89 11.97zm-8.778 0L1.087 19.717V4.222l11.024 7.747zM1.087 2.296c0-.674.556-1.223 1.24-1.223h28.347c.683 0 1.24.549 1.24 1.223v.61l-.563.394-11.398 8.01-.47.33-.467.329-.74.52a3.094 3.094 0 0 1-3.551 0l-.74-.52-.47-.33-.468-.329L1.65 3.3l-.562-.396v-.608zm30.826 19.407c0 .676-.556 1.225-1.24 1.225H2.328c-.684 0-1.24-.55-1.24-1.225v-.67l.562-.395 11.398-8.01 1.047.734c.72.506 1.562.76 2.407.76.842 0 1.685-.254 2.405-.76l1.047-.734 11.398 8.01.562.395v.67zM30.673 0H2.328C1.044 0 0 1.03 0 2.296v19.407C0 22.97 1.044 24 2.327 24h28.347C31.956 24 33 22.97 33 21.703V2.296C33 1.03 31.956 0 30.674 0z" fill="#6C7682" mask="url(#on2zc4rgfb)"/>
    </g>
</svg>
