<svg width="37" height="29" viewBox="0 0 37 29" xmlns="http://www.w3.org/2000/svg" xmlns:xlink="http://www.w3.org/1999/xlink">
    <defs>
        <path id="9lfy8tcdoa" d="M0 0h7.493v6.386H0z"/>
    </defs>
    <g fill="none" fill-rule="evenodd">
        <path d="M3.773 14.5c0 5.366 2.962 10.05 7.364 12.557M23.716.938a15.01 15.01 0 0 0-2.473-.683 14.888 14.888 0 0 0-7.603.558M33.235 14.5c0-5.366-2.962-10.051-7.366-12.558" stroke="#6C7682" stroke-width="2.073"/>
        <path d="m10.743.977 1.029 1.802a13.71 13.71 0 0 0-1.966 1.326 13.506 13.506 0 0 0-1.7 1.639 1.062 1.062 0 0 1-1.48.117 1.022 1.022 0 0 1-.118-1.457A15.6 15.6 0 0 1 8.47 2.511 15.854 15.854 0 0 1 10.743.977M25.235 26.223a13.71 13.71 0 0 0 1.968-1.327 13.51 13.51 0 0 0 1.7-1.64 1.062 1.062 0 0 1 1.48-.118c.442.37.495 1.022.12 1.457a15.6 15.6 0 0 1-1.964 1.895 15.85 15.85 0 0 1-2.275 1.534l-1.03-1.801z" fill="#6C7682"/>
        <path d="M13.292 28.062c.79.293 1.616.523 2.473.683 2.637.49 5.243.257 7.605-.559" stroke="#6C7682" stroke-width="2.073"/>
        <path fill="#6C7682" d="M3.747 8.114 7.493 14.5H0z"/>
        <g transform="translate(29.507 14.486)">
            <mask id="40n97zembb" fill="#fff">
                <use xlink:href="#9lfy8tcdoa"/>
            </mask>
            <path fill="#6C7682" mask="url(#40n97zembb)" d="M3.747 6.386 7.493 0H0z"/>
        </g>
    </g>
</svg>
