<svg width="26" height="35" viewBox="0 0 26 35" xmlns="http://www.w3.org/2000/svg" xmlns:xlink="http://www.w3.org/1999/xlink">
    <defs>
        <path id="7cas2kw4pa" d="M0 0h26v35H0z"/>
    </defs>
    <g fill="none" fill-rule="evenodd">
        <mask id="p7dwhoyryb" fill="#fff">
            <use xlink:href="#7cas2kw4pa"/>
        </mask>
        <path d="M24.178 27.093c-.578 2.42-1.872 4.286-3.745 5.393-1.465.867-3.225 1.325-5.095 1.325-.408 0-.82-.023-1.223-.067-.841-.094-1.913-.269-2.744-.804-.66-.425-1.24-1.064-1.824-2.008-.6-.973-1.12-2.149-1.508-3.403-.082-.267-.15-.543-.217-.82-.218-.877-.442-1.783-1.092-2.548l-5.148-6.037a1.715 1.715 0 0 1-.383-1.32c.065-.481.321-.898.721-1.177.69-.479 1.745-.295 2.32.39l2.972 3.447v1.775a.594.594 0 1 0 1.185 0v-2.367c.04-1.206.04-4.785-.005-15.984 0-.937.76-1.7 1.692-1.7l.092.003c.853.044 1.601.898 1.601 1.826v13.679a.593.593 0 1 0 1.185 0v-5.524c.353-.57.991-.89 1.672-.79.824.117 1.444.882 1.444 1.777V17.506a.594.594 0 1 0 1.185 0V13a1.688 1.688 0 0 1 1.558-1.072l.092.003c.882.045 1.601.859 1.601 1.81V18.405a.594.594 0 1 0 1.185 0v-4.051a1.672 1.672 0 0 1 1.424-.822c.933 0 1.692.763 1.692 1.689l-.101 5.967c-.032 1.85-.068 3.947-.536 5.905m-1.055-14.75c-.567 0-1.107.168-1.564.47-.358-1.155-1.366-2.006-2.585-2.07a2.876 2.876 0 0 0-1.835.548c-.319-1.086-1.218-1.926-2.338-2.087-.666-.095-1.3.04-1.84.353v-6.54c0-1.556-1.247-2.936-2.723-3.014a2.893 2.893 0 0 0-3.03 2.887c.02 4.896.04 11.767.027 14.783l-2.094-2.427a3.048 3.048 0 0 0-2.31-1.09c-.572 0-1.12.17-1.584.492a2.91 2.91 0 0 0-1.222 1.997 2.91 2.91 0 0 0 .654 2.248l5.153 6.044c.466.548.647 1.281.84 2.059.073.298.146.596.235.885.416 1.349.981 2.62 1.633 3.677.68 1.101 1.377 1.858 2.19 2.383 1.04.669 2.285.877 3.255.984.447.05.903.075 1.353.075 2.08 0 4.05-.515 5.696-1.489 2.157-1.276 3.643-3.398 4.297-6.14.497-2.085.534-4.251.568-6.163L26 15.23a2.887 2.887 0 0 0-2.877-2.888" fill="#6C7682" mask="url(#p7dwhoyryb)"/>
    </g>
</svg>
