<svg width="38.946" height="38.69" viewBox="0 0 38.946 38.69" xmlns="http://www.w3.org/2000/svg" xmlns:xlink="http://www.w3.org/1999/xlink">
    <defs>
        <path id="ocnaaheuea" d="M0 0h18v24H0z"/>
    </defs>
    <g fill="none" fill-rule="evenodd">
        <ellipse cx="19.473" cy="19.345" rx="19.473" ry="19.345" fill="#74B7FF"/>
        <g transform="translate(10 7)">
            <mask id="q4kteu57ub" fill="#fff">
                <use xlink:href="#ocnaaheuea"/>
            </mask>
            <path d="M17.878 6.847a5.21 5.21 0 0 0-.383-1.116 4.86 4.86 0 0 0-.619-.978c-.243-.304-2.301-2.82-2.301-2.82A4.927 4.927 0 0 0 12.723.52C11.954.173 11.099 0 10.18 0 9.265 0 8.33.173 7.411.52a8.98 8.98 0 0 0-2.479 1.412 9.025 9.025 0 0 0-1.917 2.09 7.701 7.701 0 0 0-1.101 2.563c-.217.97-.205 1.917.04 2.727.19.648.521 1.241.989 1.76 0 0 1.507 1.87 2.09 2.575H1.339c-.262 0-.527.1-.75.273-.221.182-.38.418-.434.667a5.978 5.978 0 0 0-.028 2.566c.171.782.508 1.49.998 2.096 0 0 2.056 2.519 2.305 2.82.245.305.524.573.83.808.313.236.651.438 1.022.603.38.174.788.303 1.214.39.42.086.862.13 1.32.13H7.833c.458 0 .916-.044 1.38-.13a8.042 8.042 0 0 0 1.376-.39 8.55 8.55 0 0 0 1.288-.603 8.711 8.711 0 0 0 1.19-.809c.379-.3.729-.625 1.05-.977.323-.347.613-.72.874-1.114.264-.407.491-.826.673-1.257.185-.427.33-.864.42-1.305.113-.485.163-.96.153-1.42a4.665 4.665 0 0 0-.19-1.305 4.002 4.002 0 0 0-.387-.927c-.151-.277-2.386-3.039-2.686-3.408h3.691c.27 0 .54-.108.755-.28.21-.167.374-.404.43-.661.1-.447.145-.883.149-1.313a5.424 5.424 0 0 0-.121-1.254" fill="#000050" mask="url(#q4kteu57ub)"/>
        </g>
        <path d="M11.131 21.586c-.171.778-.175 1.524-.022 2.198.143.68.439 1.285.855 1.798.412.507.95.925 1.588 1.212.64.285 1.378.442 2.179.442.798 0 1.604-.157 2.375-.442a7.889 7.889 0 0 0 2.118-1.212 7.68 7.68 0 0 0 1.647-1.798c.448-.674.77-1.42.942-2.198.185-.827.175-1.62-.03-2.305a3.77 3.77 0 0 0-.839-1.49 5.64 5.64 0 0 0-1.017-.879c-.627-.421-1.272-.737-1.867-1.025-.44-.212-.85-.416-1.193-.614a4.291 4.291 0 0 1-.633-.433 1.777 1.777 0 0 1-.289-.297.905.905 0 0 1-.185-.39 1.427 1.427 0 0 1 .02-.564c.06-.265.169-.508.316-.733.148-.224.335-.426.55-.597a2.55 2.55 0 0 1 .71-.406c.252-.092.512-.146.79-.146.274 0 .515.054.726.146.209.096.392.23.527.406.14.171.244.373.291.597.05.223.05.468-.01.733h3.89c.172-.776.178-1.524.026-2.198a4.203 4.203 0 0 0-.856-1.797 4.31 4.31 0 0 0-1.586-1.207 5.334 5.334 0 0 0-2.18-.446c-.8 0-1.61.16-2.374.446a7.75 7.75 0 0 0-2.12 1.207 7.69 7.69 0 0 0-1.644 1.797 6.495 6.495 0 0 0-.947 2.198c-.185.83-.168 1.624.032 2.305a3.85 3.85 0 0 0 .835 1.49c.314.354.665.635 1.021.877.625.427 1.276.739 1.864 1.03.447.213.855.413 1.194.613.257.147.472.293.633.431a1.8 1.8 0 0 1 .29.3c.104.141.156.257.186.39.026.134.03.296-.022.561-.06.268-.165.508-.312.735a2.654 2.654 0 0 1-.554.599 2.459 2.459 0 0 1-.706.402 2.251 2.251 0 0 1-.791.15 1.737 1.737 0 0 1-.725-.15c-.21-.09-.392-.23-.532-.402a1.425 1.425 0 0 1-.287-.599 1.697 1.697 0 0 1 .007-.735h-3.89z" fill="#00C0C0"/>
        <path d="M13.726 26.769c-.002.01.002.017.016.017.004 0 .013-.008.016-.017.003-.01-.006-.016-.01-.016-.014 0-.018.006-.022.016zm-.437-.603c-.019 0-.043.02-.047.04-.006.022.01.043.03.043.023 0 .05-.021.055-.042.004-.021-.013-.04-.038-.04zm-.451-.585a.084.084 0 0 0-.08.062c-.008.034.016.061.052.061.035 0 .07-.027.077-.06.008-.036-.013-.063-.049-.063zm-.462-.564a.09.09 0 0 0-.078.062.05.05 0 0 0 .05.064.08.08 0 0 0 .08-.064c.008-.033-.012-.062-.052-.062zm-.452-.586c-.05 0-.1.038-.11.084-.01.05.022.085.072.085a.108.108 0 0 0 .105-.085c.01-.046-.02-.084-.067-.084zm-.452-.59a.151.151 0 0 0-.141.112c-.012.06.03.108.093.108.06 0 .126-.048.138-.108a.09.09 0 0 0-.09-.112zm-.347-.453c.017-.07-.03-.128-.101-.134.006.083.02.156.036.234a.17.17 0 0 0 .065-.1zm3.763 3.38c-.001.01.009.018.018.018.008 0 .012-.008.014-.017.004-.01 0-.016-.008-.016-.01 0-.02.006-.024.016zm-.434-.602c-.022 0-.043.02-.047.04-.006.022.008.043.03.043.025 0 .048-.021.054-.042.003-.021-.01-.04-.037-.04zm-.448-.585a.08.08 0 0 0-.08.062c-.007.034.013.061.053.061a.079.079 0 0 0 .075-.06c.008-.036-.012-.063-.048-.063zm-.463-.564a.09.09 0 0 0-.08.062c-.008.037.018.064.052.064a.086.086 0 0 0 .081-.064c.008-.033-.018-.062-.053-.062zm-.453-.586a.115.115 0 0 0-.107.084c-.01.05.022.085.07.085a.11.11 0 0 0 .107-.085c.01-.046-.02-.084-.07-.084zm-.455-.59a.153.153 0 0 0-.138.112c-.012.06.032.108.09.108a.142.142 0 0 0 .137-.108c.014-.061-.024-.112-.09-.112zm-.452-.588a.182.182 0 0 0-.17.135c-.017.076.034.134.11.134a.18.18 0 0 0 .171-.134c.016-.073-.032-.135-.111-.135zm-.458-.562a.18.18 0 0 0-.17.137c-.016.073.034.13.11.13.074 0 .155-.057.171-.13.016-.077-.037-.137-.111-.137zm-.458-.585a.214.214 0 0 0-.197.154.126.126 0 0 0 .127.157.206.206 0 0 0 .2-.157c.02-.084-.036-.154-.13-.154zm4.79 4.663c-.002.01.004.017.012.017s.018-.008.02-.017c.004-.01-.006-.016-.014-.016s-.014.006-.018.016zm-.434-.603a.05.05 0 0 0-.047.04c-.006.022.006.043.03.043.021 0 .047-.021.053-.042.004-.021-.014-.04-.036-.04zm-.452-.585a.082.082 0 0 0-.077.062c-.008.034.013.061.05.061.033 0 .071-.027.079-.06.008-.036-.018-.063-.052-.063zm-.464-.564c-.036 0-.064.03-.071.062-.009.037.007.064.044.064a.083.083 0 0 0 .079-.064c.008-.033-.016-.062-.052-.062zm-.448-.586c-.054 0-.104.038-.113.084-.01.05.022.085.076.085a.11.11 0 0 0 .103-.085c.01-.046-.022-.084-.066-.084zm-.457-.59a.153.153 0 0 0-.142.112c-.012.06.032.108.093.108a.14.14 0 0 0 .138-.108c.014-.061-.022-.112-.09-.112zm-.452-.588a.182.182 0 0 0-.172.135c-.018.076.032.134.111.134a.18.18 0 0 0 .17-.134.108.108 0 0 0-.11-.135zm-.463-.562a.177.177 0 0 0-.166.137c-.017.073.031.13.107.13.08 0 .155-.057.171-.13.016-.077-.032-.137-.112-.137zm-.451-.585a.21.21 0 0 0-.197.154c-.018.088.038.157.127.157a.21.21 0 0 0 .197-.157c.02-.084-.04-.154-.127-.154zm-.532-.227c.105 0 .203-.08.225-.181a.19.19 0 0 0-.016-.112h-.289a.203.203 0 0 0-.067.112c-.023.1.044.18.147.18zm5.322 4.89c-.002.01.002.017.012.017.004 0 .012-.008.014-.017.004-.01-.004-.016-.008-.016-.01 0-.015.006-.018.016zm-.44-.603a.052.052 0 0 0-.048.04c-.006.022.008.043.03.043a.058.058 0 0 0 .054-.042c.004-.021-.009-.04-.036-.04zm-.452-.585a.08.08 0 0 0-.076.062c-.008.034.012.061.048.061.04 0 .074-.027.082-.06.008-.036-.014-.063-.054-.063zm-.458-.564c-.036 0-.07.03-.078.062-.008.037.014.064.05.064a.079.079 0 0 0 .076-.064c.008-.033-.012-.062-.048-.062zm-.452-.586c-.05 0-.1.038-.11.084-.01.05.023.085.073.085a.108.108 0 0 0 .104-.085c.01-.046-.019-.084-.067-.084zm-.458-.59a.152.152 0 0 0-.137.112.088.088 0 0 0 .09.108.142.142 0 0 0 .137-.108c.014-.061-.024-.112-.09-.112zm-.448-.588a.181.181 0 0 0-.171.135c-.018.076.032.134.112.134a.178.178 0 0 0 .166-.134c.017-.073-.031-.135-.107-.135zm-.464-.562a.175.175 0 0 0-.165.137c-.016.073.03.13.105.13.082 0 .158-.057.174-.13.016-.077-.032-.137-.114-.137zm-.452-.585a.21.21 0 0 0-.195.154c-.018.088.038.157.126.157a.21.21 0 0 0 .199-.157c.02-.084-.04-.154-.13-.154zm-.535-.227c.107 0 .209-.08.23-.181a.16.16 0 0 0-.02-.112h-.29a.22.22 0 0 0-.068.112c-.022.1.044.18.148.18zm4.887 4.287c-.021 0-.043.02-.048.04-.005.022.009.043.03.043.023 0 .045-.021.05-.042.004-.021-.01-.04-.032-.04zm-.451-.585c-.036 0-.074.027-.082.062-.008.034.018.061.054.061a.081.081 0 0 0 .076-.06c.007-.036-.014-.063-.048-.063zm-.464-.564c-.032 0-.068.03-.076.062-.008.037.016.064.048.064.04 0 .073-.027.081-.064.008-.033-.013-.062-.053-.062zm-.452-.586c-.048 0-.1.038-.11.084-.01.05.024.085.072.085.053 0 .101-.035.112-.085.01-.046-.02-.084-.074-.084zm-.452-.59a.147.147 0 0 0-.138.112c-.012.06.026.108.09.108.062 0 .125-.048.137-.108.015-.061-.027-.112-.09-.112zm-.626-.453c-.018.076.038.134.114.134a.178.178 0 0 0 .167-.134.105.105 0 0 0-.031-.105c-.017-.007-.032-.013-.048-.023-.008 0-.02-.007-.028-.007-.076 0-.157.062-.174.135zm-.458-.56c-.015.073.033.13.108.13.05 0 .1-.023.13-.057a1.609 1.609 0 0 1-.126-.198.186.186 0 0 0-.112.125zm-.28-.722a.213.213 0 0 0-.201.154c-.018.088.038.157.132.157.089 0 .174-.069.192-.157.02-.084-.033-.154-.123-.154zm-.537-.227c.103 0 .204-.08.226-.181a.185.185 0 0 0-.016-.112h-.292a.241.241 0 0 0-.064.112c-.022.1.04.18.146.18zm4.89 4.287c-.029 0-.05.02-.054.04-.007.022.007.043.035.043.022 0 .044-.021.05-.042.004-.021-.01-.04-.031-.04zm-.458-.585a.08.08 0 0 0-.076.062c-.008.034.012.061.047.061.036 0 .072-.027.08-.06.008-.036-.016-.063-.051-.063zm-.458-.564a.082.082 0 0 0-.076.062c-.008.037.012.064.047.064a.08.08 0 0 0 .076-.064c.008-.033-.012-.062-.047-.062zm-.453-.586c-.05 0-.1.038-.109.084-.01.05.021.085.071.085a.11.11 0 0 0 .106-.085c.01-.046-.02-.084-.068-.084zm-.457-.59a.147.147 0 0 0-.137.112c-.012.06.027.108.089.108a.14.14 0 0 0 .137-.108c.014-.061-.022-.112-.09-.112zm-.512-.319c.062 0 .12-.038.151-.085a3.107 3.107 0 0 1-.25.027.116.116 0 0 0 .099.058zm3.048 2.06a.082.082 0 0 0-.077.061c-.009.034.014.061.05.061a.08.08 0 0 0 .075-.06c.008-.036-.012-.063-.048-.063zm-.458-.565c-.036 0-.074.03-.081.062-.008.037.017.064.053.064.03 0 .068-.027.076-.064a.05.05 0 0 0-.048-.062zm-.458-.586c-.05 0-.1.038-.11.084-.01.05.022.085.073.085.053 0 .1-.035.11-.085.01-.046-.019-.084-.073-.084zm-.452-.59a.152.152 0 0 0-.14.112c-.013.06.03.108.093.108.061 0 .125-.048.137-.108a.089.089 0 0 0-.09-.112zm-.451-.588c-.076 0-.158.062-.174.135-.018.076.038.134.113.134a.185.185 0 0 0 .172-.134c.016-.073-.038-.135-.111-.135zm2.524 1.764a.082.082 0 0 0-.076.062c-.008.037.012.064.048.064.036 0 .074-.027.082-.064.007-.033-.018-.062-.054-.062zm-.452-.586c-.05 0-.1.038-.11.084-.01.05.022.085.072.085a.11.11 0 0 0 .106-.085c.01-.046-.02-.084-.068-.084zm-.452-.59a.149.149 0 0 0-.142.112c-.011.06.027.108.094.108a.14.14 0 0 0 .132-.108c.014-.061-.022-.112-.084-.112zm-.458-.588a.181.181 0 0 0-.167.135c-.018.076.032.134.107.134a.183.183 0 0 0 .172-.134c.015-.073-.037-.135-.112-.135zm-.458-.562a.178.178 0 0 0-.167.137c-.016.073.031.13.107.13.08 0 .156-.057.171-.13.017-.077-.031-.137-.111-.137zm-3.183-4.064a.299.299 0 0 0-.122.028c.106.06.217.126.325.18.007-.118-.078-.208-.203-.208zm-.235-.312c.033-.15-.064-.273-.225-.273a.368.368 0 0 0-.317.21c.006.005.008.01.018.01.13.091.263.174.396.253a.344.344 0 0 0 .128-.2zm-.437-.558c.038-.17-.07-.3-.24-.3a.398.398 0 0 0-.377.3c-.008.039-.002.073-.002.108.08.065.16.125.24.189h.007a.4.4 0 0 0 .372-.297zm-.702-.862a.398.398 0 0 0-.373.296c-.036.167.072.298.241.298.174 0 .34-.13.377-.298.037-.165-.072-.296-.245-.296zm-.19-.27c.038-.177-.077-.319-.262-.319a.428.428 0 0 0-.404.32.259.259 0 0 0 .03.184c.01.021.023.039.033.054a.255.255 0 0 0 .2.089.431.431 0 0 0 .403-.328zm-.431-.561c.041-.193-.084-.345-.283-.345a.452.452 0 0 0-.34.171c.003 0 .003.004.003.004.054.181.122.35.198.516a.465.465 0 0 0 .422-.346zm-.436-.562c.045-.204-.088-.374-.305-.374-.005 0-.014.004-.022.004.022.227.06.45.117.66a.495.495 0 0 0 .21-.29zm8.145 8.929a.115.115 0 0 0-.104.084c-.01.05.022.085.066.085a.074.074 0 0 0 .044-.016c.021-.022.045-.048.065-.073.01-.046-.021-.08-.071-.08zm-.453-.59a.154.154 0 0 0-.14.112c-.013.06.031.108.093.108s.125-.048.137-.108a.089.089 0 0 0-.09-.112zm-.451-.588a.18.18 0 0 0-.167.135c-.018.076.031.134.107.134.08 0 .15-.058.168-.134.015-.073-.029-.135-.108-.135zm-.459-.562a.18.18 0 0 0-.172.137c-.017.073.033.13.113.13a.177.177 0 0 0 .168-.13c.015-.077-.033-.137-.109-.137zm-.457-.585c-.09 0-.176.07-.195.154-.018.088.036.157.125.157a.207.207 0 0 0 .2-.157c.02-.084-.036-.154-.13-.154zm-.3-.408c.019-.098-.053-.179-.154-.179a.154.154 0 0 0-.048.01c-.004.019-.002.034-.006.057-.022.097-.056.189-.087.281a.17.17 0 0 0 .064.012c.101 0 .208-.08.23-.181zm-1.516-1.92c.056.032.112.061.162.092a.183.183 0 0 0-.162-.092zm-.456-.59c-.13 0-.247.093-.3.204.145.074.282.139.412.208a.324.324 0 0 0 .093-.157c.03-.14-.06-.254-.205-.254zm-.458-.561a.338.338 0 0 0-.318.256c-.032.137.06.252.207.252a.344.344 0 0 0 .316-.252c.03-.14-.064-.256-.205-.256zm-.46-.585a.37.37 0 0 0-.344.273c-.034.156.07.277.225.277.16 0 .315-.12.348-.277.034-.15-.07-.273-.228-.273zm-.448-.585a.396.396 0 0 0-.376.3c-.036.161.072.297.245.297a.399.399 0 0 0 .372-.297c.038-.17-.072-.3-.24-.3zm-.463-.562a.4.4 0 0 0-.373.296c-.036.167.074.298.241.298.17 0 .342-.13.379-.298.037-.165-.079-.296-.247-.296zm-.453-.589a.429.429 0 0 0-.402.32c-.04.18.08.327.261.327a.433.433 0 0 0 .406-.328c.039-.177-.078-.319-.265-.319zm-.172-.242c.041-.193-.084-.345-.283-.345a.458.458 0 0 0-.43.345c-.043.192.083.346.278.346a.46.46 0 0 0 .435-.346zm-.43-.562c.045-.204-.092-.374-.305-.374-.21 0-.418.17-.464.374-.044.202.091.369.3.369a.5.5 0 0 0 .468-.37zm-.465-.564c.046-.206-.087-.37-.298-.37a.49.49 0 0 0-.464.37c-.044.206.085.369.3.369a.49.49 0 0 0 .462-.37zm7.7 8.315a.18.18 0 0 0-.168.135c-.018.076.032.134.108.134.08 0 .155-.058.173-.134.016-.073-.034-.135-.113-.135zm-.458-.562a.178.178 0 0 0-.168.137c-.016.073.032.13.108.13.08 0 .151-.057.167-.13.016-.077-.028-.137-.107-.137zm-.452-.585a.21.21 0 0 0-.201.154c-.018.088.038.157.13.157a.204.204 0 0 0 .194-.157c.02-.084-.036-.154-.123-.154zm-.454-.587a.235.235 0 0 0-.225.179c-.022.1.04.18.147.18.101 0 .203-.08.225-.18.02-.098-.045-.179-.147-.179zm-.462-.564a.237.237 0 0 0-.225.18c-.022.101.044.182.145.182.107 0 .21-.08.231-.181.022-.104-.044-.18-.151-.18zm-.454-.587a.269.269 0 0 0-.253.202c-.026.115.048.206.163.206s.233-.09.26-.206c.023-.111-.055-.202-.17-.202zm-.45-.59a.318.318 0 0 0-.293.23c-.027.127.062.232.191.232a.308.308 0 0 0 .285-.231.182.182 0 0 0-.183-.231zm-.458-.59a.337.337 0 0 0-.313.255c-.031.144.058.256.2.256a.34.34 0 0 0 .324-.256c.03-.14-.06-.254-.211-.254zm-.458-.561a.34.34 0 0 0-.318.256c-.032.137.063.252.207.252.147 0 .29-.115.322-.252.03-.14-.064-.256-.211-.256zm-.454-.585a.37.37 0 0 0-.344.273c-.034.156.07.277.224.277.16 0 .315-.12.35-.277.033-.15-.07-.273-.23-.273zm-.583.012a.401.401 0 0 0 .372-.297c.038-.17-.073-.3-.241-.3a.403.403 0 0 0-.378.3c-.036.161.077.297.247.297zm-.464-.565c.173 0 .34-.13.376-.298.038-.165-.071-.296-.245-.296a.398.398 0 0 0-.372.296c-.036.167.071.298.24.298zm-.458-.536a.43.43 0 0 0 .4-.328c.038-.177-.077-.319-.258-.319a.428.428 0 0 0-.407.32c-.04.18.078.327.265.327zm-.317-1.234c-.199 0-.392.152-.434.345-.041.192.084.346.283.346a.46.46 0 0 0 .436-.346c.042-.193-.083-.345-.285-.345zm-.92-.217c-.043.202.092.369.305.369.21 0 .42-.167.464-.37a.296.296 0 0 0-.3-.373.503.503 0 0 0-.469.374zm-.157-.195a.495.495 0 0 0 .468-.37c.046-.205-.091-.369-.305-.369a.495.495 0 0 0-.463.37c-.044.206.091.369.3.369zm7.71 7.384a.185.185 0 0 0-.174.137c-.016.073.038.13.114.13a.177.177 0 0 0 .167-.13c.016-.077-.032-.137-.108-.137zm-.459-.585a.215.215 0 0 0-.195.154c-.017.088.042.157.125.157a.21.21 0 0 0 .2-.157c.02-.084-.04-.154-.13-.154zm-.454-.587a.24.24 0 0 0-.225.179c-.021.1.046.18.148.18.101 0 .209-.08.23-.18.02-.098-.05-.179-.153-.179zm-.456-.564a.234.234 0 0 0-.227.18c-.022.101.04.182.148.182.102 0 .205-.08.227-.181.022-.104-.046-.18-.148-.18zm-.453-.587a.271.271 0 0 0-.26.202c-.025.115.048.206.17.206.115 0 .233-.09.259-.206.024-.111-.054-.202-.17-.202zm-.457-.59a.31.31 0 0 0-.286.23c-.028.127.055.232.185.232a.309.309 0 0 0 .29-.231c.029-.126-.055-.231-.189-.231zm-.451-.59a.338.338 0 0 0-.319.255c-.032.144.058.256.205.256a.338.338 0 0 0 .319-.256c.03-.14-.06-.254-.205-.254zm-.458-.561a.338.338 0 0 0-.319.256c-.032.137.06.252.207.252a.34.34 0 0 0 .317-.252c.03-.14-.06-.256-.205-.256zm-.46-.585a.368.368 0 0 0-.343.273c-.034.156.068.277.224.277.159 0 .314-.12.348-.277.034-.15-.07-.273-.23-.273zm-.583.012c.172 0 .34-.136.376-.297.038-.17-.072-.3-.245-.3a.397.397 0 0 0-.373.3c-.036.161.072.297.242.297zm-.458-.565c.173 0 .34-.13.375-.298.039-.165-.07-.296-.244-.296a.398.398 0 0 0-.373.296c-.035.167.072.298.242.298zm-.462-.536c.18 0 .364-.146.403-.328.039-.177-.08-.319-.262-.319a.428.428 0 0 0-.404.32c-.04.18.08.327.263.327zm-.75-.89c-.04.193.086.347.282.347.2 0 .398-.154.44-.346.041-.193-.088-.345-.289-.345a.46.46 0 0 0-.432.345zm-.483-.561c-.044.202.092.369.305.369.209 0 .42-.167.464-.37a.296.296 0 0 0-.301-.373.502.502 0 0 0-.468.374zm-.16-.195a.492.492 0 0 0 .469-.37c.046-.205-.09-.369-.305-.369a.491.491 0 0 0-.462.37c-.044.206.088.369.299.369zm6.8 6.212a.24.24 0 0 0-.23.179c-.02.1.045.18.152.18.102 0 .203-.08.226-.18a.144.144 0 0 0-.148-.179zm-.462-.564a.238.238 0 0 0-.226.18c-.023.101.045.182.147.182.107 0 .208-.08.23-.181.022-.104-.043-.18-.15-.18zm-.454-.587a.274.274 0 0 0-.257.202c-.026.115.053.206.168.206.119 0 .233-.09.258-.206.024-.111-.05-.202-.169-.202zm-.45-.59a.313.313 0 0 0-.292.23c-.029.127.057.232.19.232a.307.307 0 0 0 .29-.231c.027-.126-.054-.231-.187-.231zm-.452-.59a.338.338 0 0 0-.318.255c-.032.144.058.256.205.256.141 0 .287-.112.318-.256a.203.203 0 0 0-.205-.254zm-.463-.561a.342.342 0 0 0-.317.256c-.032.137.063.252.205.252a.345.345 0 0 0 .322-.252c.03-.14-.063-.256-.21-.256zm-.455-.585a.37.37 0 0 0-.344.273c-.033.156.07.277.225.277a.372.372 0 0 0 .349-.277c.033-.15-.074-.273-.23-.273zm-.451-.585a.396.396 0 0 0-.373.3c-.035.161.072.297.241.297.17 0 .34-.136.376-.297.038-.17-.075-.3-.244-.3zm-.596.032c.173 0 .34-.13.377-.298.037-.165-.072-.296-.245-.296a.399.399 0 0 0-.372.296c-.036.167.073.298.24.298zm-.722-.864c-.04.182.077.328.26.328a.43.43 0 0 0 .405-.328c.037-.177-.076-.319-.263-.319a.426.426 0 0 0-.402.32zm-.487-.561c-.041.192.084.346.285.346a.46.46 0 0 0 .434-.346c.042-.193-.083-.345-.282-.345a.46.46 0 0 0-.437.345zm-.178-.193c.21 0 .417-.167.461-.37.046-.203-.087-.373-.298-.373a.5.5 0 0 0-.468.374c-.044.202.09.369.305.369zm-.765-.933c-.044.206.092.369.3.369a.494.494 0 0 0 .468-.37c.003-.009.003-.02.005-.034a2.098 2.098 0 0 1-.348-.333.494.494 0 0 0-.425.368zm6.188 5.43a.269.269 0 0 0-.257.202c-.026.115.046.206.167.206.116 0 .233-.09.26-.206.023-.111-.055-.202-.17-.202zm-.456-.59a.312.312 0 0 0-.287.23.184.184 0 0 0 .186.232.31.31 0 0 0 .29-.231c.028-.126-.056-.231-.189-.231zm-.452-.59a.344.344 0 0 0-.319.255c-.031.144.064.256.206.256a.343.343 0 0 0 .324-.256c.03-.14-.064-.254-.211-.254zm-.458-.561a.338.338 0 0 0-.318.256c-.032.137.06.252.207.252.14 0 .287-.115.318-.252a.204.204 0 0 0-.207-.256zm-.454-.585a.372.372 0 0 0-.35.273c-.034.156.07.277.23.277a.364.364 0 0 0 .343-.277c.034-.15-.068-.273-.223-.273zm-.59.012c.174 0 .341-.136.377-.297.038-.17-.072-.3-.245-.3a.397.397 0 0 0-.372.3c-.036.161.072.297.24.297zm-.457-.565c.173 0 .34-.13.376-.298.038-.165-.071-.296-.245-.296a.398.398 0 0 0-.372.296c-.036.167.071.298.241.298zm-.462-.536a.435.435 0 0 0 .404-.328c.038-.177-.082-.319-.263-.319a.425.425 0 0 0-.404.32c-.04.18.076.327.263.327zm-.746-.89c-.042.193.083.347.278.347a.463.463 0 0 0 .436-.346c.002-.01.002-.014.002-.026-.101-.051-.205-.1-.31-.151-.068-.031-.132-.066-.202-.095a.452.452 0 0 0-.204.272zm-.186-.192c.115 0 .225-.05.313-.123-.21-.102-.414-.2-.597-.3a.265.265 0 0 0-.017.054c-.043.202.088.369.301.369zm-.6-.598a.656.656 0 0 1-.075-.045.23.23 0 0 0 .098.058c-.004-.004-.016-.007-.024-.013zm5.008 4.426h.004a3.395 3.395 0 0 0-.097-.418s-.005-.008-.002-.012a.321.321 0 0 0-.114.174c-.032.144.062.256.21.256zm-.666-.816c-.032.137.063.252.205.252a.335.335 0 0 0 .264-.14 3.774 3.774 0 0 0-.163-.365.334.334 0 0 0-.306.253zm-.482-.568c-.034.156.07.277.224.277.156 0 .311-.12.345-.277.004-.02.002-.038 0-.058a3.733 3.733 0 0 0-.134-.198.246.246 0 0 0-.091-.017.37.37 0 0 0-.344.273zm-.48-.558c-.036.161.067.297.24.297.168 0 .341-.136.377-.297.003-.019 0-.039-.003-.054a3.73 3.73 0 0 0-.246-.246.399.399 0 0 0-.369.3zm-.462-.566c-.036.167.07.298.245.298.145 0 .29-.105.346-.24a3.69 3.69 0 0 0-.402-.296.373.373 0 0 0-.19.238zm-.223-.238c.097 0 .189-.04.267-.104a11.085 11.085 0 0 0-.494-.3.269.269 0 0 0-.03.076c-.04.182.075.328.257.328zm-.476-.543-.227-.123c.048.069.127.115.227.123zm-7.144-2.598a.516.516 0 0 1-.133.239.492.492 0 0 1 .243-.07c.09 0 .163.025.215.07a.358.358 0 0 1-.022-.24.46.46 0 0 1 .098-.2.568.568 0 0 1-.221.055.387.387 0 0 1-.19-.054c.018.06.027.127.01.2zm.275-1.127a.464.464 0 0 1-.08.176.529.529 0 0 1 .168-.034.44.44 0 0 1 .163.034.365.365 0 0 1-.002-.176.513.513 0 0 1 .05-.124.532.532 0 0 1-.158.023.377.377 0 0 1-.135-.023.365.365 0 0 1-.006.124zm.432.561a.504.504 0 0 1-.098.197c.07-.03.142-.05.218-.05a.38.38 0 0 1 .19.05.347.347 0 0 1-.01-.197.518.518 0 0 1 .068-.158.476.476 0 0 1-.364 0 .475.475 0 0 1-.004.158zm.3-1.127a.563.563 0 0 1-.057.14.44.44 0 0 1 .25 0 .424.424 0 0 1 .009-.14.462.462 0 0 1 .038-.112.493.493 0 0 1-.23 0c-.001.035-.001.073-.01.112zm.272-1.126c-.008.039-.023.073-.034.106a.61.61 0 0 1 .087-.008c.03 0 .056.004.086.008 0-.033.002-.067.01-.106.003-.022.014-.039.024-.06-.034.005-.056.008-.086.008a.555.555 0 0 1-.084-.008c-.002.021 0 .038-.003.06zm-.11 2.819a.543.543 0 0 1-.133.239.466.466 0 0 1 .243-.07c.087 0 .157.025.214.07a.336.336 0 0 1-.025-.24.5.5 0 0 1 .095-.2.532.532 0 0 1-.215.055.396.396 0 0 1-.193-.054c.022.06.03.127.014.2zm.269-1.127a.499.499 0 0 1-.078.176.537.537 0 0 1 .171-.034c.062 0 .114.015.157.034a.446.446 0 0 1 .003-.176c.01-.043.03-.085.046-.124a.502.502 0 0 1-.152.023.37.37 0 0 1-.137-.023.429.429 0 0 1-.01.124zm.274-1.13a.613.613 0 0 1-.042.113.449.449 0 0 1 .236 0 .284.284 0 0 1 .007-.113.254.254 0 0 1 .03-.087.48.48 0 0 1-.115.015.367.367 0 0 1-.104-.015c-.004.031-.006.058-.012.087zm.293-1.126a.484.484 0 0 1-.022.079c.02 0 .042-.006.06-.006.022 0 .044.006.062.006a.26.26 0 0 1 .006-.079c.003-.011.008-.019.011-.033a.272.272 0 0 1-.109 0c-.004.014-.004.022-.008.033zm-.131 2.817a.446.446 0 0 1-.102.197c.07-.03.146-.05.217-.05.08 0 .144.02.198.05a.335.335 0 0 1-.01-.197.4.4 0 0 1 .067-.158.684.684 0 0 1-.195.036.4.4 0 0 1-.175-.036.349.349 0 0 1 0 .158zm.298-1.127c-.012.05-.035.096-.058.14a.596.596 0 0 1 .128-.017c.044 0 .086.008.123.017-.001-.044-.006-.09.006-.14.009-.039.026-.077.042-.112a.626.626 0 0 1-.121.013.586.586 0 0 1-.114-.013c0 .035.003.073-.006.112zm.273-1.126a.425.425 0 0 1-.036.106.596.596 0 0 1 .086-.008c.032 0 .058.004.086.008.003-.033.008-.067.015-.106a.225.225 0 0 1 .019-.06.443.443 0 0 1-.164 0c-.002.021-.002.038-.006.06zm.291-1.126c-.002.016-.01.033-.016.054.014 0 .026-.006.034-.006.012 0 .02.006.034.006.005-.021.005-.038.008-.054.003-.011.003-.019.012-.029-.015 0-.026.004-.038.004-.008 0-.016-.004-.027-.004-.003.01-.003.018-.007.029zm-.404 3.945a.53.53 0 0 1-.134.239.5.5 0 0 1 .247-.07c.086 0 .16.025.211.07a.373.373 0 0 1-.022-.24.466.466 0 0 1 .098-.2.536.536 0 0 1-.217.055.376.376 0 0 1-.191-.054c.016.06.023.127.008.2zm.274-1.127a.591.591 0 0 1-.077.176.482.482 0 0 1 .169-.034c.058 0 .11.015.16.034a.368.368 0 0 1-.003-.176.463.463 0 0 1 .05-.124.54.54 0 0 1-.153.023.403.403 0 0 1-.14-.023.328.328 0 0 1-.006.124zm.271-1.13a.37.37 0 0 1-.043.113.472.472 0 0 1 .234 0 .475.475 0 0 1 .039-.2.453.453 0 0 1-.112.015.375.375 0 0 1-.108-.015c.002.031-.004.058-.01.087zm.297-1.126c-.006.027-.018.054-.026.079.022 0 .04-.006.062-.006.018 0 .04.006.057.006 0-.025.002-.052.008-.079.004-.011.009-.019.012-.033a.303.303 0 0 1-.111 0c-.004.014.002.022-.002.033zm.275-1.127c-.002.011-.008.02-.012.03.008 0 .024-.004.031-.004.014 0 .017.004.03.004.004-.01.002-.019.004-.03v-.005c-.01 0-.017.005-.028.005-.007 0-.021-.005-.025-.005v.005zm-.41 3.944a.434.434 0 0 1-.098.197c.066-.03.14-.05.215-.05.075 0 .14.02.193.05a.4.4 0 0 1 .062-.355.497.497 0 0 1-.372 0 .383.383 0 0 1 0 .158zm.296-1.127a.44.44 0 0 1-.054.14.46.46 0 0 1 .25 0 .432.432 0 0 1 .01-.14.47.47 0 0 1 .035-.112.515.515 0 0 1-.23 0 .454.454 0 0 1-.01.112zm.273-1.126a.415.415 0 0 1-.036.106c.034-.004.06-.008.09-.008.032 0 .063.004.087.008a.5.5 0 0 1 .01-.106c.004-.022.014-.039.024-.06-.034.005-.06.008-.088.008-.03 0-.05-.003-.081-.008-.002.021-.002.038-.006.06zm.297-1.126c-.003.016-.01.033-.016.054.01 0 .02-.006.031-.006.01 0 .023.006.03.006.006-.021.006-.038.008-.054.004-.011.009-.019.012-.029-.008 0-.024.004-.033.004-.008 0-.014-.004-.029-.004-.003.01 0 .018-.003.029zm.274-1.128c-.002.008-.007.016-.01.027l.004-.001.01.001c-.001-.011 0-.019.002-.03H17.12l.003.003zm-.41 3.946a.48.48 0 0 1-.077.176.542.542 0 0 1 .175-.034c.058 0 .11.015.153.034a.453.453 0 0 1 .004-.176.861.861 0 0 1 .044-.124.483.483 0 0 1-.293 0 .322.322 0 0 1-.006.124zm.277-1.13c-.01.04-.028.079-.044.113a.48.48 0 0 1 .235 0 .285.285 0 0 1 .008-.113.531.531 0 0 1 .028-.087.404.404 0 0 1-.221 0c.002.031 0 .058-.006.087zm.294-1.126c-.006.027-.015.054-.023.079.017 0 .04-.006.061-.006.018 0 .036.006.058.006 0-.025.002-.052.008-.079.004-.011.008-.019.012-.033a.3.3 0 0 1-.111 0c-.005.014 0 .022-.005.033zm.274-1.127c-.003.011-.01.02-.014.03.014 0 .023-.004.037-.004.01 0 .016.004.024.004.004-.01.003-.019.004-.03v-.005l-.022.005c-.014 0-.022-.005-.03-.005v.005zm-.11 2.817a.413.413 0 0 1-.06.14.665.665 0 0 1 .13-.017.51.51 0 0 1 .125.017.415.415 0 0 1 .004-.14c.008-.039.026-.077.042-.112a.519.519 0 0 1-.235 0 .316.316 0 0 1-.006.112zm.269-1.126a.732.732 0 0 1-.032.106.607.607 0 0 1 .085-.008c.036 0 .063.004.092.008 0-.033-.002-.067.006-.106a.18.18 0 0 1 .024-.06.504.504 0 0 1-.165 0c-.006.021-.006.038-.01.06zm.3-1.126c-.001.016-.01.033-.02.054.012 0 .022-.006.032-.006.014 0 .02.006.034.006.006-.021.006-.038.008-.054l.012-.029c-.014 0-.024.004-.038.004-.01 0-.016-.004-.024-.004-.004.01 0 .018-.004.029zm.271-1.128-.006.027v-.001l.01.001c.002-.011-.002-.019 0-.03h-.004v.003zm-.135 2.816a.57.57 0 0 1-.038.113.42.42 0 0 1 .12-.015c.04 0 .08.004.11.015a.4.4 0 0 1 .013-.113c.006-.03.016-.056.023-.087a.47.47 0 0 1-.11.015.328.328 0 0 1-.103-.015c-.007.031-.01.058-.015.087zm.296-1.126c-.006.027-.018.054-.025.079.017 0 .04-.006.063-.006s.04.006.062.006a.252.252 0 0 1 .006-.079c.004-.011.004-.019.008-.033a.302.302 0 0 1-.112 0c-.003.014.003.022-.002.033zm.275-1.127c-.002.011-.008.02-.012.03.008 0 .024-.004.034-.004.008 0 .014.004.024.004a.156.156 0 0 0 .008-.03v-.005c-.01 0-.018.005-.026.005-.01 0-.02-.005-.032-.005l.004.005zm.161 1.69a.397.397 0 0 1-.037.107c.034-.004.06-.008.091-.008.03 0 .062.004.086.008 0-.033.003-.067.012-.106.004-.022.012-.039.018-.06a.439.439 0 0 1-.16 0c-.006.021-.006.038-.01.06zm.295-1.125c-.002.016-.01.033-.016.054.008 0 .02-.006.034-.006.012 0 .02.006.034.006 0-.021 0-.038.002-.054l.012-.029-.032.004c-.014 0-.016-.004-.03-.004-.004.01 0 .018-.004.029zm.277-1.128c-.003.008-.008.016-.01.027l.004-.001.003.001.007-.03h-.004v.003zm-.136 2.816c-.01.04-.027.079-.043.113a.442.442 0 0 1 .119-.015c.044 0 .08.004.116.015 0-.034-.003-.073.008-.113.006-.03.018-.056.03-.087a.481.481 0 0 1-.116.015.365.365 0 0 1-.103-.015.636.636 0 0 1-.01.087zm.291-1.126c-.006.027-.016.054-.02.079.018 0 .04-.006.057-.006.023 0 .044.006.062.006 0-.025.003-.052.009-.079.003-.011.008-.019.012-.033a.3.3 0 0 1-.115 0c0 .014 0 .022-.005.033zm.275-1.127a.062.062 0 0 1-.012.03c.013 0 .026-.004.034-.004.014 0 .02.004.03.004a.155.155 0 0 0 .008-.03v-.005c-.015 0-.018.005-.032.005-.008 0-.018-.005-.028-.005v.005zm.166 1.69a.475.475 0 0 1-.037.107.564.564 0 0 1 .177 0 .436.436 0 0 1 .006-.106.237.237 0 0 1 .022-.06.54.54 0 0 1-.085.008.514.514 0 0 1-.078-.008c-.002.021-.002.038-.005.06zm.296-1.125a.151.151 0 0 1-.023.054c.01 0 .027-.006.035-.006.014 0 .026.006.034.006.005-.021.005-.038.007-.054l.012-.029c-.014 0-.023.004-.038.004-.003 0-.015-.004-.023-.004-.004.01 0 .018-.004.029zm.27-1.128a.102.102 0 0 1-.01.027l.004-.001.01.001c.002-.011-.002-.019 0-.03h-.004v.003zm-.134 2.816c-.01.04-.027.079-.039.113a.412.412 0 0 1 .12-.015c.04 0 .08.004.111.015a.38.38 0 0 1 .012-.113.499.499 0 0 1 .024-.087.388.388 0 0 1-.217 0c-.004.031-.006.058-.011.087zm.296-1.126c-.006.027-.016.054-.024.079.02 0 .04-.006.062-.006.021 0 .04.006.061.006 0-.025.002-.052.008-.079.004-.011.004-.019.012-.033a.3.3 0 0 1-.115 0c0 .014 0 .022-.004.033zm.27-1.127-.007.03c.01 0 .024-.004.033-.004.008 0 .02.004.029.004.003-.01.001-.019.003-.03v-.005c-.008 0-.018.005-.026.005-.01 0-.018-.005-.031-.005v.005zm-.103 2.817a.59.59 0 0 1-.06.14.462.462 0 0 1 .25 0 .491.491 0 0 1 .047-.252.554.554 0 0 1-.231 0c0 .035.002.073-.006.112zm.27-1.126a.371.371 0 0 1-.039.106c.034-.004.06-.008.092-.008.03 0 .061.004.087.008a.424.424 0 0 1 .01-.106c.004-.022.012-.039.018-.06a.455.455 0 0 1-.16 0c-.001.021-.005.038-.009.06zm.296-1.126c-.003.016-.012.033-.023.054.015 0 .025-.006.038-.006.014 0 .02.006.035.006l.001-.054.012-.029c-.008 0-.024.004-.031.004-.01 0-.017-.004-.03-.004-.005.01.001.018-.002.029zm.275-1.128c-.003.008-.009.016-.01.027l.003-.001.004.001c.003-.011 0-.019.003-.03v.003zm-.411 3.946a.476.476 0 0 1-.08.176.551.551 0 0 1 .172-.034.46.46 0 0 1 .163.034.35.35 0 0 1-.002-.176.643.643 0 0 1 .046-.124.512.512 0 0 1-.154.023.378.378 0 0 1-.135-.023c0 .039 0 .081-.01.124zm.275-1.13a.518.518 0 0 1-.044.113.43.43 0 0 1 .12-.015c.04 0 .08.004.11.015.005-.034.003-.073.013-.113.006-.03.017-.056.03-.087a.476.476 0 0 1-.116.015.352.352 0 0 1-.101-.015c-.004.031-.006.058-.012.087zm.295-1.126c-.006.027-.02.054-.024.079.018 0 .04-.006.057-.006.022 0 .04.006.062.006 0-.025.002-.052.008-.079.004-.011.008-.019.012-.033a.34.34 0 0 1-.06.006.228.228 0 0 1-.051-.006c-.004.014 0 .022-.004.033zm.276-1.127c-.001.011-.008.02-.012.03.008 0 .02-.004.028-.004.014 0 .02.004.034.004 0-.01.002-.019.004-.03v-.005c-.01 0-.018.005-.032.005-.008 0-.018-.005-.026-.005l.004.005zm-.41 3.944a.52.52 0 0 1-.097.197.543.543 0 0 1 .217-.05c.07 0 .137.02.191.05a.336.336 0 0 1-.014-.197.438.438 0 0 1 .072-.158.493.493 0 0 1-.19.036.398.398 0 0 1-.179-.036.383.383 0 0 1 0 .158zm.297-1.127a.449.449 0 0 1-.058.14.466.466 0 0 1 .253 0 .333.333 0 0 1 .01-.14c.008-.039.016-.077.038-.112a.592.592 0 0 1-.118.013.628.628 0 0 1-.12-.013.298.298 0 0 1-.005.112zm.275-1.126c-.009.039-.026.073-.038.106a.538.538 0 0 1 .174 0c.003-.033.007-.067.015-.106.003-.022.012-.039.018-.06a.477.477 0 0 1-.165 0c0 .021 0 .038-.004.06zm.294-1.126c-.002.016-.01.033-.016.054.008 0 .02-.006.034-.006.008 0 .02.006.028.006.002-.021.006-.038.008-.054.004-.011.004-.019.008-.029-.01 0-.02.004-.028.004-.014 0-.022-.004-.03-.004-.004.01 0 .018-.004.029zm-.14 2.818a.562.562 0 0 1-.073.176.403.403 0 0 1 .329 0 .368.368 0 0 1-.002-.176.478.478 0 0 1 .051-.124.558.558 0 0 1-.153.023.416.416 0 0 1-.141-.023.321.321 0 0 1-.01.124zm.275-1.13a.607.607 0 0 1-.037.113.428.428 0 0 1 .12-.015c.039 0 .079.004.11.015a.378.378 0 0 1 .008-.113.28.28 0 0 1 .035-.087.401.401 0 0 1-.223 0c-.005.031-.007.058-.013.087zm.297-1.126a.494.494 0 0 1-.026.079c.024 0 .042-.006.064-.006s.04.006.058.006c.004-.025.004-.052.01-.079.004-.011.01-.019.014-.033a.31.31 0 0 1-.116 0c-.004.014 0 .022-.004.033zm.275-1.127c-.002.011-.008.02-.012.03.014 0 .02-.004.034-.004.008 0 .02.004.03.004.003-.01 0-.019.002-.03v-.005c-.008 0-.018.005-.026.005-.01 0-.018-.005-.032-.005l.004.005zm-.506 4.14c.07-.029.14-.05.215-.05.076 0 .144.021.197.05a.308.308 0 0 1-.014-.196.403.403 0 0 1 .072-.158.486.486 0 0 1-.37 0 .352.352 0 0 1-.004.158.515.515 0 0 1-.096.197zm.398-1.323c-.012.05-.035.096-.057.14a.577.577 0 0 1 .127-.017c.044 0 .082.008.125.017a.346.346 0 0 1 .005-.14.5.5 0 0 1 .037-.112.524.524 0 0 1-.23 0c0 .035.002.073-.007.112zm.27-1.126a.448.448 0 0 1-.037.106.588.588 0 0 1 .09-.008c.032 0 .058.004.088.008a.421.421 0 0 1 .01-.106c.003-.022.011-.039.017-.06a.464.464 0 0 1-.16 0c-.005.021-.005.038-.009.06zm.295-1.126c-.001.016-.011.033-.017.054.01 0 .026-.006.034-.006.014 0 .02.006.033.006.002-.021.002-.038.005-.054l.012-.029c-.015 0-.02.004-.034.004-.008 0-.02-.004-.03-.004-.004.01.002.018-.003.029zm-.134 2.818a.59.59 0 0 1-.074.176.4.4 0 0 1 .325 0 .436.436 0 0 1 .048-.3.52.52 0 0 1-.154.023.384.384 0 0 1-.135-.023c0 .039 0 .081-.01.124zm.27-1.13c-.01.04-.018.079-.04.113a.428.428 0 0 1 .12-.015c.044 0 .08.004.115.015a.323.323 0 0 1 .01-.113.585.585 0 0 1 .028-.087.483.483 0 0 1-.115.015.34.34 0 0 1-.102-.015c-.004.031-.01.058-.016.087zm.165 1.691a.446.446 0 0 1-.1.197c.069-.03.144-.05.22-.05a.39.39 0 0 1 .191.05.355.355 0 0 1-.01-.197.424.424 0 0 1 .068-.158.631.631 0 0 1-.19.036.502.502 0 0 1-.179-.036.374.374 0 0 1 0 .158zm.3-1.127a.59.59 0 0 1-.057.14.526.526 0 0 1 .13-.017c.04 0 .082.008.12.017a.41.41 0 0 1 .047-.252.499.499 0 0 1-.23 0c-.005.035-.003.073-.01.112zM12.88 14.767a.31.31 0 0 1-.12-.024 5.258 5.258 0 0 1 .13-1.154c.147-.67.42-1.32.774-1.923a.063.063 0 0 0 .016.002c0-.011.002-.019.004-.03.048-.083.096-.17.151-.247a7.7 7.7 0 0 1 1.645-1.797 7.75 7.75 0 0 1 2.12-1.207 6.804 6.804 0 0 1 2.373-.446c.799 0 1.542.16 2.18.446a4.31 4.31 0 0 1 1.587 1.207c.21.258.39.545.534.846-.006.023-.016.047-.024.068.018 0 .036-.006.05-.006.13.28.226.577.296.89.152.673.146 1.421-.026 2.197h-3.89c.014-.064.022-.127.028-.189.02-.004.038-.008.056-.008.075 0 .137.021.193.05a.376.376 0 0 1-.01-.196.468.468 0 0 1 .07-.158.646.646 0 0 1-.193.036.618.618 0 0 1-.106-.01 1.372 1.372 0 0 0-.028-.258 1.406 1.406 0 0 0-.29-.597 1.382 1.382 0 0 0-.528-.406 1.783 1.783 0 0 0-.727-.146c-.277 0-.537.054-.788.146a2.55 2.55 0 0 0-.71.406c-.216.171-.403.373-.55.597a2.215 2.215 0 0 0-.317.733c-.002.015-.002.03-.006.048-.048.013-.097.029-.147.029a.393.393 0 0 1-.198-.054c.023.06.026.127.01.2a.52.52 0 0 1-.13.239.467.467 0 0 1 .248-.07c.072 0 .134.02.19.054-.003.045.007.083.013.118.02.09.05.175.102.261a.529.529 0 0 1-.478.353c-.231 0-.37-.173-.323-.391a.477.477 0 0 1 .116-.223.494.494 0 0 1-.263.077.348.348 0 0 1-.225-.077c.03.063.033.14.016.223a.52.52 0 0 1-.49.39c-.227 0-.37-.172-.322-.39a.47.47 0 0 1 .12-.223.529.529 0 0 1-.266.077.361.361 0 0 1-.227-.077c.032.063.04.14.022.223a.521.521 0 0 1-.494.39c-.223 0-.368-.172-.32-.39a.49.49 0 0 1 .121-.223.529.529 0 0 1-.265.077.35.35 0 0 1-.227-.077c.03.063.034.14.016.223a.518.518 0 0 1-.493.39zm3.866-.955.004-.025c-.01.064-.008.121-.012.17a.416.416 0 0 1 .008-.145z" fill="#FFF"/>
        <path d="M13.654 14.53a6.576 6.576 0 0 1 .942-2.198 7.933 7.933 0 0 1 3.771-3.008 6.804 6.804 0 0 1 2.371-.442 5.29 5.29 0 0 1 2.176.443c.446.2.836.461 1.173.775a3.925 3.925 0 0 0-.347-.506 4.353 4.353 0 0 0-1.586-1.213 5.354 5.354 0 0 0-2.18-.44c-.8 0-1.607.156-2.374.44a7.918 7.918 0 0 0-2.12 1.213 7.647 7.647 0 0 0-1.645 1.793 6.55 6.55 0 0 0-.946 2.202c-.185.829-.168 1.624.033 2.305a3.85 3.85 0 0 0 .833 1.49c.102.111.2.211.307.31a3.87 3.87 0 0 1-.376-.859c-.201-.679-.217-1.476-.032-2.305M11.896 22.53h3.186a1.578 1.578 0 0 1-.066-.213 1.678 1.678 0 0 1 .006-.73h-3.89c-.172.777-.176 1.523-.023 2.197.143.679.438 1.285.855 1.795.125.156.269.302.424.437a4.126 4.126 0 0 1-.518-1.29 5.125 5.125 0 0 1 .026-2.197M16.6 24.265c.212.092.452.144.724.146.274-.002.54-.054.792-.146.252-.096.49-.235.709-.402.217-.175.398-.379.545-.603.152-.223.257-.466.317-.73.053-.27.05-.428.026-.564a1.068 1.068 0 0 0-.186-.392l-.768-.938a.99.99 0 0 1 .185.388c.026.135.03.297-.022.562-.06.268-.165.508-.312.736a2.665 2.665 0 0 1-1.26 1 2.255 2.255 0 0 1-.791.15 1.742 1.742 0 0 1-.725-.15c-.21-.09-.392-.23-.532-.402l.763.943c.147.171.327.306.535.402" fill="#00C0C0"/>
        <path d="M21.391 13.59a1.573 1.573 0 0 0-.223-.393l-.769-.938c.14.171.244.373.291.597.05.223.05.467-.01.733h.711zM17.998 15.782c.168.14.38.285.633.431.343.201.753.399 1.197.612.591.293 1.242.606 1.864 1.028.249.166.487.356.714.57a3.91 3.91 0 0 0-.461-.632 5.65 5.65 0 0 0-1.018-.879c-.627-.421-1.272-.737-1.868-1.025-.44-.212-.85-.416-1.192-.614a4.287 4.287 0 0 1-.633-.433 1.77 1.77 0 0 1-.289-.297l.765.94c.073.092.167.192.288.3" fill="#00C0C0"/>
        <path d="M26.651 15.04a.18.18 0 0 0-.169.135c-.016.073.034.132.11.132a.18.18 0 0 0 .17-.132c.019-.077-.031-.135-.11-.135zm-.151-1.557c.01-.048-.02-.086-.07-.086a.114.114 0 0 0-.107.086c-.01.048.02.086.067.086.05 0 .1-.038.11-.086zm-.307.99a.182.182 0 0 0-.167.136c-.018.077.034.134.108.134a.178.178 0 0 0 .167-.134c.016-.073-.032-.135-.108-.135zm-.113 1.263c.018-.084-.042-.158-.132-.158a.214.214 0 0 0-.196.158.128.128 0 0 0 .128.158c.09 0 .182-.073.2-.158zm-.402-1.58a.142.142 0 0 0 .137-.105c.014-.066-.024-.112-.09-.112a.148.148 0 0 0-.137.112c-.012.057.032.105.09.105zm-.196.884a.173.173 0 0 0-.163.135c-.016.073.028.132.104.132.08 0 .155-.06.17-.132.02-.077-.03-.135-.11-.135zm.409-2.12c-.008.034.012.06.044.06a.08.08 0 0 0 .08-.06c.007-.035-.013-.062-.053-.062-.032 0-.063.027-.071.061zm-.86 1.554a.182.182 0 0 0-.172.135c-.018.077.032.134.112.134a.177.177 0 0 0 .167-.134c.016-.073-.032-.135-.107-.135zm-.245 1.104a.21.21 0 0 0-.199.158c-.018.085.037.158.13.158.09 0 .176-.073.194-.158.018-.084-.036-.158-.125-.158zm-.468-.538a.178.178 0 0 0-.167.135c-.017.073.031.132.107.132.08 0 .157-.06.173-.132.018-.077-.033-.135-.113-.135zm-.57.696c.018-.084-.041-.158-.131-.158a.21.21 0 0 0-.194.158c-.017.085.038.158.126.158.09 0 .181-.073.2-.158zm-.593-.696a.181.181 0 0 0-.173.135c-.017.073.033.132.113.132.076 0 .151-.06.167-.132.018-.077-.031-.135-.107-.135zm3.739-.828c.102.447.126.928.092 1.424a.18.18 0 0 0-.066.1.12.12 0 0 0 .048.13 6.274 6.274 0 0 1-.096.548h-.382a.24.24 0 0 0 .07-.112c.022-.102-.044-.18-.146-.18a.24.24 0 0 0-.227.18c-.01.043 0 .077.018.112h-.88a.234.234 0 0 0 .072-.112c.022-.102-.046-.18-.151-.18a.244.244 0 0 0-.227.18c-.01.043 0 .077.02.112h-.877a.268.268 0 0 0 .066-.112c.022-.102-.04-.18-.147-.18a.235.235 0 0 0-.225.18c-.01.043 0 .077.014.112h-.876a.231.231 0 0 0 .071-.112c.023-.102-.045-.18-.147-.18a.227.227 0 0 0-.141.05l-.26-.331a.22.22 0 0 0 .063-.105.128.128 0 0 0-.126-.158.228.228 0 0 0-.12.043l-.29-.358a.171.171 0 0 0 .056-.088c.018-.077-.038-.135-.114-.135a.17.17 0 0 0-.095.034l-.31-.377a.152.152 0 0 0 .057-.088.11.11 0 0 0-.012-.08h.948a.162.162 0 0 0-.048.08c-.018.077.034.134.113.134.076 0 .15-.057.168-.134a.11.11 0 0 0-.012-.08h.944a.163.163 0 0 0-.048.08c-.018.077.036.134.11.134.077 0 .15-.057.169-.134a.112.112 0 0 0-.013-.08h.406c.538 0 1.072-.42 1.185-.94a6.268 6.268 0 0 0 .15-1.542c.122.118.237.241.344.372.364.442.621.966.783 1.539a.158.158 0 0 0-.068.093c-.012.057.026.105.09.105.011 0 .025 0 .035-.003.004.02.012.038.012.06zm-9.736 6.893c-.027 0-.052-.008-.074-.011.102.065.201.123.301.188a.443.443 0 0 1 .294-.223 3.8 3.8 0 0 0-.196-.143.398.398 0 0 1-.325.19zm-.464-.562c-.134 0-.226-.084-.242-.2a44.856 44.856 0 0 0-.383-.188l-.096-.05c.028.034.055.07.084.103.275.31.574.562.884.786a.25.25 0 0 1-.028-.189.36.36 0 0 1 .103-.172 10.616 10.616 0 0 0-.208-.11.371.371 0 0 1-.114.02zm1.267.947a.428.428 0 0 1-.072.085l.05.03.005-.018c.009-.04.014-.07.017-.097zm6.08 1.009c-.044.204.091.37.305.37.212 0 .42-.166.463-.37.046-.204-.087-.37-.3-.37a.499.499 0 0 0-.468.37zm-.24.192c-.21 0-.42.167-.465.37-.043.203.092.373.3.373.218 0 .425-.17.47-.374.043-.202-.089-.369-.306-.369zm.043-1.387c.025-.14.047-.278.062-.416.01.126.103.217.243.217a.391.391 0 0 0 .33-.192c.041.057.084.111.123.17a.429.429 0 0 0-.26.29c-.038.179.08.321.263.321a.415.415 0 0 0 .275-.115c.017.038.037.073.053.111a.452.452 0 0 0-.16.245c-.04.19.09.348.285.348.026 0 .046-.008.064-.013.048.17.08.351.098.533a.319.319 0 0 0-.251-.112c-.21 0-.42.167-.464.37a.297.297 0 0 0 .3.373c.182 0 .361-.125.436-.289a.842.842 0 0 1 0 .13.524.524 0 0 0-.3.35.337.337 0 0 0 .02.22.374.374 0 0 0-.231-.072.518.518 0 0 0-.261.073.52.52 0 0 0 .12-.22c.045-.215-.1-.394-.323-.394a.532.532 0 0 0-.494.394.337.337 0 0 0 .022.22.372.372 0 0 0-.233-.073c-.09 0-.179.026-.26.073a.483.483 0 0 0 .12-.22c.039-.18-.056-.334-.217-.38.07-.144.135-.289.196-.436a.482.482 0 0 0 .247-.311.305.305 0 0 0-.04-.241c.011-.037.021-.074.033-.11a.281.281 0 0 0 .25.135.471.471 0 0 0 .44-.348c.041-.189-.088-.348-.287-.348-.1 0-.2.043-.28.11l.025-.107c.013-.054.021-.108.032-.162.008-.019.02-.036.024-.055.005-.025 0-.046 0-.069zm-4.34-7.821c.01-.048-.02-.086-.068-.086-.05 0-.1.038-.11.086-.01.048.02.086.07.086a.114.114 0 0 0 .107-.086zm-.305.99a.18.18 0 0 0-.167.136c-.018.077.031.134.107.134.08 0 .15-.057.167-.134.016-.073-.027-.135-.107-.135zm-.18-1.554a.05.05 0 0 0-.047-.061c-.036 0-.073.027-.082.061-.008.035.018.061.054.061.03 0 .068-.026.076-.06zm-.284 1.02a.142.142 0 0 0-.141.112c-.012.057.025.105.093.105a.14.14 0 0 0 .133-.105c.015-.066-.023-.112-.085-.112zm-.394-.456c.01-.048-.02-.086-.074-.086-.048 0-.1.038-.11.086-.01.048.022.086.07.086.054 0 .104-.038.114-.086zm1.505.77 1.236 1.524c-.458-.268-.91-.491-1.321-.693l-.022-.01a.105.105 0 0 0-.06-.03l-.026-.012a18.635 18.635 0 0 1-1.145-.589 3.93 3.93 0 0 1-.53-.36 1.296 1.296 0 0 1-.183-.183.285.285 0 0 1-.055-.094c-.006-.028-.012-.075.018-.217.03-.13.077-.248.154-.364a1.359 1.359 0 0 1 .632-.506c.131-.048.259-.073.388-.073.138 0 .26.025.366.073.106.05.2.116.267.206.07.087.124.189.144.294a.808.808 0 0 1-.006.37c-.055.25-.006.49.143.664zm4.336 6.275-.153-.189a.431.431 0 0 1-.092.105 5.86 5.86 0 0 1-.022.343.41.41 0 0 1 .267-.259zm-8.136 8.138c-.003.01 0 .021-.003.029 0 0-.006.006-.006.01.015-.004.024-.004.032-.004s.018 0 .026.004V28.7c.004-.014.012-.025.014-.035-.01.002-.026.006-.034.006-.014 0-.016-.004-.03-.006zm.487.568h-.004c-.002.007 0 .02-.002.029.002-.01.008-.022.01-.03h-.004zm-1.173 0c-.002.007.003.02 0 .029h.004c.002-.01.008-.022.01-.03h-.014zm2.332 0c.002.007 0 .02-.002.029h.01l.005-.03H17.692zm.229-1.155c-.004.02-.004.035-.009.054a.067.067 0 0 1-.011.03c.014 0 .023-.003.038-.003.008 0 .015.004.023.004l.009-.031c.003-.02.012-.035.015-.054l-.032.004c-.013 0-.02-.004-.033-.004zm-1.165 0c-.004.02-.002.035-.006.054-.002.01-.004.019-.014.03l.034-.003c.014 0 .016.004.03.004.003-.012.001-.021.003-.031.005-.02.013-.035.02-.054-.013 0-.023.004-.037.004-.008 0-.02-.004-.03-.004zm.458.587-.006.029-.002.01c.01-.004.018-.004.026-.004.014 0 .024 0 .032.004V28.7a.304.304 0 0 0 .007-.035c-.007.002-.019.006-.033.006-.008 0-.014-.004-.024-.006zm3.977.568-.001.029c0-.004 0-.004.006-.004.002-.01.007-.018.01-.025h-.015zm3.884-5.046a.567.567 0 0 1-.102.198.736.736 0 0 1 .157-.044c.024-.112.042-.224.058-.335a.28.28 0 0 1-.142-.057c.032.067.046.15.029.238zm-.224 1.074c.016-.039.034-.073.046-.11-.017-.002-.034-.01-.05-.013.008.039.015.08.004.123zm-9.969 3.404-.001.029s-.006.006-.006.01c.007-.004.018-.004.025-.004a.09.09 0 0 1 .032.004V28.7c.004-.014.006-.025.012-.035-.014.002-.024.006-.038.006-.007 0-.015-.004-.024-.006zm-.463-.533c-.002.01-.01.019-.014.03.014 0 .024-.003.033-.003.01 0 .02.004.028.004.004-.012.002-.021.004-.031.003-.013.01-.024.015-.036l-.065-.011c0 .016.002.03-.001.047zm7.883-1.801c0 .034.003.073-.007.111-.006.03-.018.054-.032.085a.62.62 0 0 1 .117-.012c.037 0 .07.004.104.012a.382.382 0 0 1 .054-.196c-.042.007-.08.015-.12.015a.566.566 0 0 1-.116-.015zm.437-2.144a.493.493 0 0 1-.098.198.502.502 0 0 1 .22-.051c.069 0 .137.018.189.051a.395.395 0 0 1-.005-.198.473.473 0 0 1 .128-.238.53.53 0 0 1-.243.069.353.353 0 0 1-.14-.03l-.044.07a.433.433 0 0 1-.007.129zm-.633 3.302a.727.727 0 0 1-.01.081c-.002.008-.008.02-.012.03.02-.003.038-.003.06-.003.017 0 .035 0 .051.004.004-.012.002-.023.004-.03.006-.032.016-.055.026-.082a.346.346 0 0 1-.119 0zm.738-2.351a.438.438 0 0 1-.328 0 .366.366 0 0 1 0 .179.362.362 0 0 1-.05.121c.054-.014.103-.027.158-.027.049 0 .095.013.135.027.002-.042 0-.08.01-.121a.556.556 0 0 1 .075-.18zm-.26 2.94a.161.161 0 0 1-.002.054c-.002.01-.008.019-.013.03.008 0 .019-.003.029-.003.014 0 .02.004.033.004.004-.012 0-.021.002-.031.004-.02.014-.035.018-.054-.01 0-.024.004-.038.004-.01 0-.015-.004-.03-.004zm-.962-1.178c0 .035-.004.07-.012.104-.004.021-.012.042-.016.06a.348.348 0 0 1 .165 0 .222.222 0 0 1 .002-.06.441.441 0 0 1 .038-.104c-.028.004-.06.008-.091.008-.03 0-.056-.004-.086-.008zm.251 1.765c-.002.01 0 .021-.002.029 0 0-.003.006-.003.01.015-.004.019-.004.032-.004.005 0 .019 0 .027.004V28.7l.008-.035c-.008.002-.02.006-.029.006-.013 0-.02-.004-.033-.006zm.087-2.912a.459.459 0 0 1-.119-.015.47.47 0 0 1-.048.254.485.485 0 0 1 .12-.015c.04 0 .077.006.111.015a.47.47 0 0 1 .014-.115.513.513 0 0 1 .052-.139.557.557 0 0 1-.13.015zm.195-.88c.068 0 .126.014.18.038a.377.377 0 0 1-.002-.162.608.608 0 0 1 .097-.196c-.013.006-.026.008-.04.013a8.905 8.905 0 0 1-.238.307h.003zm-.734 3.205c-.004.02-.004.035-.008.054-.002.01-.008.019-.012.03.014 0 .024-.003.032-.003.01 0 .022.004.03.004.003-.012.002-.021.003-.031.005-.02.012-.035.02-.054-.011 0-.027.004-.037.004-.008 0-.02-.004-.028-.004zm1.368-1.178c.002.035-.006.07-.014.104l-.012.06a.32.32 0 0 1 .16 0c0-.018 0-.039.003-.06a.484.484 0 0 1 .042-.104c-.034.004-.06.008-.096.008a.673.673 0 0 1-.083-.008zm1.42-2.713a.525.525 0 0 1 .127-.238.489.489 0 0 1-.243.069.363.363 0 0 1-.215-.07c.034.068.047.15.03.239a.576.576 0 0 1-.098.198.484.484 0 0 1 .213-.051c.076 0 .144.018.195.051a.33.33 0 0 1-.01-.198zm-.036 1.551a.474.474 0 0 1-.005.139c-.01.042-.025.076-.041.115a.433.433 0 0 1 .235 0 .44.44 0 0 1 .063-.254.608.608 0 0 1-.13.015.463.463 0 0 1-.122-.015zm.18-1.185c.024.06.03.129.015.196-.012.058-.043.111-.07.162a.514.514 0 0 1 .191-.039c.066 0 .123.015.173.039a.462.462 0 0 1 .004-.162.566.566 0 0 1 .096-.196.46.46 0 0 1-.213.05.361.361 0 0 1-.195-.05zm-.668.585a.463.463 0 0 1 0 .179c-.01.04-.028.079-.046.121a.567.567 0 0 1 .147-.027c.05 0 .095.013.142.027a.345.345 0 0 1 .006-.121.553.553 0 0 1 .08-.18.567.567 0 0 1-.174.033.386.386 0 0 1-.155-.032zm-.56.615a.459.459 0 0 1-.116-.015.427.427 0 0 1-.051.254.511.511 0 0 1 .12-.015c.04 0 .077.006.111.015.004-.039.002-.073.012-.115.01-.05.034-.092.057-.139a.604.604 0 0 1-.133.015zm.006-.842a.54.54 0 0 1 .189-.039c.066 0 .13.015.177.039a.415.415 0 0 1 .004-.162.5.5 0 0 1 .098-.196.55.55 0 0 1-.219.05.386.386 0 0 1-.19-.05c.019.06.02.129.005.196a.535.535 0 0 1-.064.162zm.137 2.578c-.002.027-.003.05-.01.081-.001.008-.004.02-.012.03.026-.003.043-.003.06-.003.018 0 .036 0 .052.004l.008-.03c.006-.032.016-.055.026-.082a.377.377 0 0 1-.124 0zm.202-1.158a.367.367 0 0 1-.013.111c-.005.03-.015.054-.021.085a.472.472 0 0 1 .212 0c.007-.03.009-.056.014-.085a.75.75 0 0 1 .038-.111.553.553 0 0 1-.119.015.483.483 0 0 1-.111-.015zm-3.441 2.902-.006.029h.004c.002-.01.008-.022.01-.03h-.008zm-.94-1.155c-.003.02-.003.035-.007.054a.393.393 0 0 1-.008.03l.027-.003c.014 0 .02.004.03.004l.008-.031.012-.054c-.01 0-.02.004-.034.004-.008 0-.02-.004-.028-.004zm.683-.589c0 .027-.001.05-.007.081l-.012.03c.02-.003.035-.003.06-.003.017 0 .035 0 .05.004.003-.012.001-.023.003-.03a.337.337 0 0 1 .028-.082.339.339 0 0 1-.122 0zm-.23 1.176c.002.01 0 .021-.003.029l-.002.01c.008-.004.019-.004.033-.004.007 0 .017 0 .021.004V28.7c.004-.014.01-.025.012-.035-.008.002-.02.006-.027.006-.015 0-.023-.004-.035-.006zm-1.163 0c-.002.01 0 .021-.002.029 0 0-.003.006-.003.01.008-.004.016-.004.027-.004.01 0 .017 0 .025.004V28.7c.004-.014.012-.025.014-.035-.014.002-.023.006-.034.006-.01 0-.02-.004-.027-.006zm.217-1.095c-.002.008-.004.02-.012.03.02-.003.041-.003.06-.003.017 0 .035 0 .055.004.005-.012.002-.023.005-.03.006-.032.015-.055.025-.082a.416.416 0 0 1-.049.005c-.025.01-.05.022-.077.032l-.007.044zm.264 1.663a.499.499 0 0 0-.005.029H18.864l.006-.03h-.01zm2.077-1.744c-.002.027-.002.05-.007.081l-.015.03c.02-.003.038-.003.06-.003.018 0 .036 0 .052.004.004-.012.006-.023.007-.03a.217.217 0 0 1 .029-.082.31.31 0 0 1-.126 0zm-.229 1.176c-.002.01.002.021 0 .029l-.002.01c.008-.004.018-.004.026-.004.01 0 .018 0 .027.004V28.7l.013-.035c-.014.002-.02.006-.034.006-.008 0-.02-.004-.03-.006zm.43-2.334a.358.358 0 0 1-.012.111.298.298 0 0 1-.027.085.55.55 0 0 1 .222 0 .64.64 0 0 1 .01-.085.692.692 0 0 1 .038-.111.595.595 0 0 1-.12.015.492.492 0 0 1-.111-.015zm-.885 1.747c-.005.02-.005.035-.009.054-.002.01-.003.019-.008.03.01 0 .02-.003.034-.003.008 0 .016.004.03.004-.002-.012 0-.021.002-.031.004-.02.014-.035.018-.054-.014 0-.026.004-.034.004-.014 0-.02-.004-.033-.004zm.292-1.17c.031 0 .057-.004.09-.008a.503.503 0 0 0-.036.104c-.004.021-.004.042-.008.06a.325.325 0 0 0-.16 0l.017-.06a.382.382 0 0 0 .01-.104c.03.004.055.008.087.008z" fill="#FF0040"/>
    </g>
</svg>
